<svg width="16" height="16" viewBox="0 0 16 16" fill="none" xmlns="http://www.w3.org/2000/svg">
<g clip-path="url(#clip0_6_1050)">
<g clip-path="url(#clip1_6_1050)">
<path fill-rule="evenodd" clip-rule="evenodd" d="M0.410156 0.5H5.41113V15.5H0.410156V0.5Z" fill="#00319C"/>
<path fill-rule="evenodd" clip-rule="evenodd" d="M5.41113 0.5H10.4092V15.5H5.41113V0.5Z" fill="#FFDE00"/>
<path fill-rule="evenodd" clip-rule="evenodd" d="M10.4092 0.5H15.4102V15.5H10.4092V0.5Z" fill="#DE2110"/>
<path fill-rule="evenodd" clip-rule="evenodd" d="M8.89592 9.9196L9.47306 10.7523C9.50568 10.7994 9.53739 10.8451 9.48951 10.8754C9.44026 10.9066 9.4558 11.0284 9.48842 11.0755C9.55275 11.1683 9.63324 11.185 9.68113 11.1547L10.1189 10.8777C10.1668 10.8474 10.182 10.77 10.1177 10.6772C10.0814 10.6306 9.97379 10.5689 9.92591 10.5992C9.87666 10.6304 9.84495 10.5847 9.81323 10.5389L9.23428 9.70358" fill="#FF1900"/>
<path d="M8.89592 9.9196L9.47306 10.7523C9.50568 10.7994 9.53739 10.8451 9.48951 10.8754C9.44026 10.9066 9.4558 11.0284 9.48842 11.0755C9.55275 11.1683 9.63324 11.185 9.68113 11.1547L10.1189 10.8777C10.1668 10.8474 10.182 10.77 10.1177 10.6772C10.0814 10.6306 9.97379 10.5689 9.92591 10.5992C9.87666 10.6304 9.84495 10.5847 9.81323 10.5389L9.23428 9.70358" stroke="black" stroke-width="0.0213957"/>
<path fill-rule="evenodd" clip-rule="evenodd" d="M9.12002 9.33049C9.37775 9.62324 9.46742 9.95891 9.32051 10.077C9.17361 10.1951 8.84286 10.0532 8.58513 9.76046C8.32739 9.46771 8.23898 9.13104 8.38589 9.01295C8.53279 8.89485 8.86248 9.03552 9.12127 9.32948L9.12002 9.33049Z" fill="#A77B3B" stroke="black" stroke-width="0.0497475"/>
<path fill-rule="evenodd" clip-rule="evenodd" d="M6.55145 9.57854L6.04194 10.4506C6.01315 10.4999 5.98515 10.5478 5.93501 10.521C5.88343 10.4935 5.7773 10.5626 5.7485 10.6119C5.69171 10.7091 5.71306 10.7851 5.7632 10.8119L6.22166 11.0564C6.2718 11.0832 6.35074 11.0607 6.40753 10.9635C6.43426 10.9113 6.44218 10.7916 6.39203 10.7649C6.34046 10.7373 6.36845 10.6894 6.39645 10.6415L6.90756 9.76673" fill="#FF1900"/>
<path d="M6.55145 9.57854L6.04194 10.4506C6.01315 10.4999 5.98515 10.5478 5.93501 10.521C5.88343 10.4935 5.7773 10.5626 5.7485 10.6119C5.69171 10.7091 5.71306 10.7851 5.7632 10.8119L6.22166 11.0564C6.2718 11.0832 6.35074 11.0607 6.40753 10.9635C6.43426 10.9113 6.44218 10.7916 6.39203 10.7649C6.34046 10.7373 6.36845 10.6894 6.39645 10.6415L6.90756 9.76673" stroke="black" stroke-width="0.0213941"/>
<path fill-rule="evenodd" clip-rule="evenodd" d="M8.19823 8.97214H7.73387C7.71746 8.98782 7.5862 9.81881 7.44345 10.1387C7.26952 10.5275 6.74609 10.8709 6.74609 10.8709C6.74609 10.8709 7.05785 10.965 7.15302 11.0277C7.17599 11.0214 7.6748 10.9163 7.73387 10.3064C7.7913 10.9163 7.38438 11.1939 7.38438 11.1939C7.38438 11.1939 7.96687 11.3601 7.96687 11.7505C7.96687 11.3616 8.54773 11.1939 8.54773 11.1939C8.54773 11.1939 8.25566 10.9163 8.19823 10.3049C8.31309 10.9163 8.75611 11.0214 8.78072 11.0261C8.87425 10.965 9.18601 10.8693 9.18601 10.8693C9.18601 10.8693 8.66422 10.5291 8.4903 10.1387C8.34754 9.82038 8.21464 8.98625 8.19987 8.97214H8.19823Z" fill="#A77B3B" stroke="black" stroke-width="0.0497226"/>
<path fill-rule="evenodd" clip-rule="evenodd" d="M6.2207 6.19249L7.09362 6.47001C7.24439 6.46045 7.38638 6.3989 7.49322 6.29681C7.60006 6.19472 7.66447 6.05903 7.67448 5.91497C7.68432 5.29721 7.44148 5.08084 7.38405 5.08084L7.49891 4.97109L7.32662 4.80175C7.32662 4.80175 7.38569 4.51326 7.96655 4.52423C8.5474 4.53521 8.5474 4.80175 8.5474 5.07927C8.5474 5.35836 8.25697 5.35836 8.25697 5.9134C8.26736 6.0576 8.33212 6.19331 8.43922 6.29537C8.54633 6.39743 8.68853 6.45892 8.83947 6.46844L9.71075 6.19092V8.97239H6.2207V6.19249Z" fill="#A77B3B" stroke="black" stroke-width="0.0497226"/>
<path d="M7.55664 6.30338L7.6146 6.47045L7.67295 6.30338L7.73091 6.47045L7.84722 6.30338L7.90399 6.47936L7.96354 6.30338L8.04928 6.47936L8.13781 6.30338L8.19577 6.47045L8.25412 6.30338" stroke="black" stroke-width="0.00398967"/>
<path d="M7.79033 5.69232L7.67383 6.30381M7.84776 5.69232V6.30381M7.96425 5.69232V6.30381M8.08075 5.69232L8.13818 6.30381M8.19725 5.69232L8.25468 6.30381" stroke="black" stroke-width="0.00481187"/>
<path fill-rule="evenodd" clip-rule="evenodd" d="M5.63954 4.52579C5.05868 4.80331 5.05868 5.35992 5.05868 5.63744C5.07837 5.88987 5.05868 11.1925 5.05868 11.1925C5.05868 11.1925 5.09642 10.879 5.34911 10.6375L5.6379 10.36L5.92832 10.0825C6.14163 9.89745 6.21875 9.52585 6.21875 9.24833V5.35992C6.21875 5.35992 6.21875 5.08083 5.6379 4.52579H5.63954Z" fill="#A77B3B" stroke="black" stroke-width="0.0497226"/>
<path d="M6.2207 5.63848C6.21414 5.63848 5.93028 5.36096 5.93028 5.36096L5.63985 5.63848L5.34942 5.36096L5.059 5.63848" stroke="black" stroke-width="0.0497226"/>
<path d="M6.2207 5.91425C6.21414 5.91425 5.93028 6.19177 5.93028 6.19177L5.63985 5.91425L5.34942 6.19177L5.059 5.91425" stroke="black" stroke-width="0.0497226"/>
<path d="M6.2207 6.7459C6.21414 6.7459 5.93028 6.46838 5.93028 6.46838L5.63985 6.7459L5.34942 6.46838L5.059 6.7459" stroke="black" stroke-width="0.0497226"/>
<path d="M5.92641 5.36081L5.92969 10.0843" stroke="black" stroke-width="0.0684856"/>
<path d="M5.6393 5.63974L5.64258 10.3517" stroke="black" stroke-width="0.0648818"/>
<path d="M5.34926 5.36084L5.35254 10.6393" stroke="black" stroke-width="0.0686712"/>
<path fill-rule="evenodd" clip-rule="evenodd" d="M10.2921 4.52582C10.873 4.80334 10.873 5.35995 10.873 5.63747C10.8533 5.8899 10.873 11.1926 10.873 11.1926C10.873 11.1926 10.8352 10.879 10.5825 10.6375L10.2937 10.36L10.0033 10.0825C9.79001 9.89748 9.71289 9.52588 9.71289 9.24836V5.35995C9.71289 5.35995 9.71289 5.08086 10.2937 4.52582H10.2921Z" fill="#A77B3B" stroke="black" stroke-width="0.0497226"/>
<path d="M9.71094 5.63848C9.7175 5.63848 10.0014 5.36096 10.0014 5.36096L10.2918 5.63848L10.5822 5.36096L10.8726 5.63848" stroke="black" stroke-width="0.0497226"/>
<path d="M9.71094 5.91428C9.7175 5.91428 10.0014 6.1918 10.0014 6.1918L10.2918 5.91428L10.5822 6.1918L10.8726 5.91428" stroke="black" stroke-width="0.0497226"/>
<path d="M9.71094 6.7459C9.7175 6.7459 10.0014 6.46838 10.0014 6.46838L10.2918 6.7459L10.5822 6.46838L10.8726 6.7459" stroke="black" stroke-width="0.0497226"/>
<path d="M10.0043 5.36084L10.001 10.0843" stroke="black" stroke-width="0.0684856"/>
<path d="M10.2914 5.63977L10.2881 10.3518" stroke="black" stroke-width="0.0648818"/>
<path d="M10.5814 5.3609L10.5781 10.6394" stroke="black" stroke-width="0.0686712"/>
<path fill-rule="evenodd" clip-rule="evenodd" d="M7.20159 9.5016C7.04761 9.85474 6.77662 10.0849 6.59941 10.0143C6.4222 9.94374 6.40238 9.59784 6.55637 9.2447C6.71035 8.89156 6.98286 8.66204 7.16007 8.7326C7.33728 8.80315 7.35773 9.14761 7.20311 9.5022L7.20159 9.5016Z" fill="#A77B3B" stroke="black" stroke-width="0.0497356"/>
<path fill-rule="evenodd" clip-rule="evenodd" d="M6.22266 6.4707H9.70898V8.1377H6.22266V6.4707Z" fill="#FF0000"/>
<path fill-rule="evenodd" clip-rule="evenodd" d="M6.22266 8.1377H9.70898V8.9668C9.70898 9.52344 8.83887 9.52344 7.96582 10.0801C7.09277 9.52344 6.22266 9.52344 6.22266 8.9668V8.13477V8.1377Z" fill="#564DFF"/>
<path d="M6.2207 6.47003H9.70911V8.97242C9.70911 9.52746 8.83783 9.52746 7.96491 10.0841C7.09362 9.52746 6.2207 9.52746 6.2207 8.97085V6.4716V6.47003Z" stroke="#FFFF00" stroke-width="0.0400989"/>
<path fill-rule="evenodd" clip-rule="evenodd" d="M7.3263 6.58331C7.3263 6.58331 6.74512 6.99192 6.74512 7.38286C6.74512 7.7738 7.35502 7.90485 7.35502 7.90485C7.35502 7.90485 7.15172 7.90485 7.15172 8.4261C7.15172 8.68746 7.76161 8.55715 7.76161 8.68746C7.76161 8.81777 7.75357 9.13288 7.76161 9.33976C7.76161 9.47007 7.35502 9.33976 7.35502 9.47007C7.35502 9.53486 7.66054 9.86101 7.96606 9.86101C8.27159 9.86101 8.57596 9.53486 8.57596 9.47007C8.57596 9.33976 8.16936 9.47007 8.16936 9.33976V8.68746C8.16936 8.55715 8.77926 8.68746 8.77926 8.4261C8.77926 7.90485 8.57596 7.90485 8.57596 7.90485C8.57596 7.90485 9.18701 7.77453 9.18701 7.38286C9.18701 6.99118 8.60467 6.58331 8.60467 6.58331C8.60467 6.58331 8.93202 7.12223 8.93202 7.38286C8.93202 7.51317 8.77926 7.77453 8.37266 7.77453C8.37266 7.77453 8.26929 7.64348 8.16936 7.77453C8.16936 7.77453 8.05221 7.64348 7.96606 7.77453C7.9362 7.81871 7.88336 7.64348 7.76161 7.77453C7.71108 7.80914 7.66973 7.64348 7.55831 7.77453C7.35502 7.77453 6.94842 7.64348 6.94842 7.38286C6.94842 7.12223 7.3263 6.58331 7.3263 6.58331Z" fill="#FFFF00" stroke="black" stroke-width="0.0275873"/>
<path fill-rule="evenodd" clip-rule="evenodd" d="M7.33749 8.91763C7.29614 8.94414 7.39032 9.36894 7.41789 9.38735C7.45924 9.41312 7.70389 9.41312 7.74409 9.38735C7.7728 9.36894 7.74409 8.96991 7.70389 8.94414C7.66254 8.91764 7.3662 8.89997 7.33634 8.91763H7.33749Z" fill="#FFFF00" stroke="black" stroke-width="0.0275873"/>
<path fill-rule="evenodd" clip-rule="evenodd" d="M8.59415 8.91763C8.6355 8.94414 8.54132 9.36894 8.51375 9.38735C8.4724 9.41312 8.22775 9.41312 8.18755 9.38735C8.15884 9.36894 8.18755 8.96991 8.22775 8.94414C8.2691 8.91764 8.56544 8.89997 8.5953 8.91763H8.59415Z" fill="#FFFF00" stroke="black" stroke-width="0.0275873"/>
<path fill-rule="evenodd" clip-rule="evenodd" d="M7.75547 8.76119C7.75547 8.80014 7.73322 8.83749 7.6936 8.86503C7.65399 8.89257 7.60026 8.90804 7.54424 8.90804C7.48822 8.90804 7.43449 8.89257 7.39488 8.86503C7.35526 8.83749 7.33301 8.80014 7.33301 8.76119C7.33301 8.72225 7.35526 8.6849 7.39488 8.65736C7.43449 8.62982 7.48822 8.61435 7.54424 8.61435C7.60026 8.61435 7.65399 8.62982 7.6936 8.65736C7.73322 8.6849 7.75547 8.72225 7.75547 8.76119Z" fill="#FFFF00" stroke="black" stroke-width="0.0330227"/>
<path fill-rule="evenodd" clip-rule="evenodd" d="M8.59629 8.76126C8.59629 8.80021 8.57404 8.83756 8.53442 8.8651C8.49481 8.89264 8.44108 8.90811 8.38506 8.90811C8.32904 8.90811 8.27531 8.89264 8.2357 8.8651C8.19608 8.83756 8.17383 8.80021 8.17383 8.76126C8.17383 8.72231 8.19608 8.68496 8.2357 8.65742C8.27531 8.62988 8.32904 8.61441 8.38506 8.61441C8.44108 8.61441 8.49481 8.62988 8.53442 8.65742C8.57404 8.68496 8.59629 8.72231 8.59629 8.76126Z" fill="#FFFF00" stroke="black" stroke-width="0.0330232"/>
<path fill-rule="evenodd" clip-rule="evenodd" d="M8.33203 9.61133C8.33203 9.64648 8.28516 9.67578 8.22949 9.67578C8.17383 9.67578 8.12988 9.64648 8.12988 9.61133C8.12988 9.57617 8.17383 9.54688 8.22949 9.54688C8.28516 9.54688 8.33203 9.57617 8.33203 9.61133ZM7.80469 9.61133C7.80469 9.64648 7.75781 9.67578 7.70215 9.67578C7.64648 9.67578 7.59961 9.64648 7.59961 9.61133C7.59961 9.57617 7.64648 9.54688 7.70215 9.54688C7.75781 9.54688 7.80176 9.57617 7.80176 9.61133H7.80469Z" fill="black"/>
<path fill-rule="evenodd" clip-rule="evenodd" d="M7.96584 7.52748L7.84097 7.36992L7.63607 7.39593L7.66488 7.20013L7.5 7.08234L7.66488 6.96303L7.63607 6.76723L7.84097 6.79476L7.96584 6.63721L8.0907 6.79476L8.294 6.76723L8.26679 6.96303L8.43007 7.08234L8.26679 7.20166L8.294 7.39593L8.0891 7.36992L7.96584 7.52748Z" fill="#FFFF00" stroke="black" stroke-width="0.0208645"/>
<path fill-rule="evenodd" clip-rule="evenodd" d="M8.83594 8.13669L9.18543 8.30446L9.53493 8.13669L9.18543 7.97049L8.83758 8.13669H8.83594Z" fill="#FFFF00" stroke="black" stroke-width="0.0213861"/>
<path fill-rule="evenodd" clip-rule="evenodd" d="M6.33691 8.13669L6.68641 8.30446L7.03591 8.13669L6.68641 7.97049L6.33855 8.13669H6.33691Z" fill="#FFFF00" stroke="black" stroke-width="0.0213861"/>
<path fill-rule="evenodd" clip-rule="evenodd" d="M9.37953 9.13243C9.27253 9.06458 9.09228 9.0984 8.99126 9.15384C8.89023 9.20927 8.78921 9.26471 8.77562 9.46563C8.65958 9.27256 8.75097 9.09404 8.90464 9.00971C8.98613 8.97143 9.07945 8.96291 9.16705 8.98576C9.25466 9.00861 9.33051 9.06125 9.38034 9.13379L9.37953 9.13243Z" fill="#FFFF00" stroke="black" stroke-width="0.0213945"/>
<path fill-rule="evenodd" clip-rule="evenodd" d="M6.97843 8.80384C6.97843 8.83315 6.96624 8.86127 6.94455 8.882C6.92285 8.90273 6.89343 8.91437 6.86275 8.91437C6.83207 8.91437 6.80265 8.90273 6.78095 8.882C6.75926 8.86127 6.74707 8.83315 6.74707 8.80384C6.74707 8.77452 6.75926 8.7464 6.78095 8.72567C6.80265 8.70494 6.83207 8.6933 6.86275 8.6933C6.89343 8.6933 6.92285 8.70494 6.94455 8.72567C6.96624 8.7464 6.97843 8.77452 6.97843 8.80384Z" fill="#FFFF00" stroke="black" stroke-width="0.0213861"/>
<path fill-rule="evenodd" clip-rule="evenodd" d="M6.86124 9.19348C6.86124 9.2228 6.84905 9.25092 6.82736 9.27165C6.80566 9.29238 6.77624 9.30402 6.74556 9.30402C6.71488 9.30402 6.68546 9.29238 6.66376 9.27165C6.64207 9.25092 6.62988 9.2228 6.62988 9.19348C6.62988 9.16417 6.64207 9.13605 6.66376 9.11532C6.68546 9.09459 6.71488 9.08295 6.74556 9.08295C6.77624 9.08295 6.80566 9.09459 6.82736 9.11532C6.84905 9.13605 6.86124 9.16417 6.86124 9.19348Z" fill="#FFFF00" stroke="black" stroke-width="0.0213861"/>
<path fill-rule="evenodd" clip-rule="evenodd" d="M6.80265 8.97083C6.80265 9.00014 6.79046 9.02826 6.76876 9.04899C6.74707 9.06972 6.71765 9.08137 6.68697 9.08137C6.65629 9.08137 6.62686 9.06972 6.60517 9.04899C6.58348 9.02826 6.57129 9.00014 6.57129 8.97083C6.57129 8.94151 6.58348 8.9134 6.60517 8.89267C6.62686 8.87194 6.65629 8.86029 6.68697 8.86029C6.71765 8.86029 6.74707 8.87194 6.76876 8.89267C6.79046 8.9134 6.80265 8.94151 6.80265 8.97083Z" fill="#FFFF00" stroke="black" stroke-width="0.0213861"/>
<path fill-rule="evenodd" clip-rule="evenodd" d="M7.09269 9.19348C7.09269 9.2228 7.0805 9.25092 7.0588 9.27165C7.03711 9.29238 7.00769 9.30402 6.97701 9.30402C6.94633 9.30402 6.9169 9.29238 6.89521 9.27165C6.87352 9.25092 6.86133 9.2228 6.86133 9.19348C6.86133 9.16417 6.87352 9.13605 6.89521 9.11532C6.9169 9.09459 6.94633 9.08295 6.97701 9.08295C7.00769 9.08295 7.03711 9.09459 7.0588 9.11532C7.0805 9.13605 7.09269 9.16417 7.09269 9.19348Z" fill="#FFFF00" stroke="black" stroke-width="0.0213861"/>
<path fill-rule="evenodd" clip-rule="evenodd" d="M7.15128 8.97083C7.15128 9.00014 7.13909 9.02826 7.1174 9.04899C7.0957 9.06972 7.06628 9.08137 7.0356 9.08137C7.00492 9.08137 6.9755 9.06972 6.9538 9.04899C6.93211 9.02826 6.91992 9.00014 6.91992 8.97083C6.91992 8.94151 6.93211 8.9134 6.9538 8.89267C6.9755 8.87194 7.00492 8.86029 7.0356 8.86029C7.06628 8.86029 7.0957 8.87194 7.1174 8.89267C7.13909 8.9134 7.15128 8.94151 7.15128 8.97083Z" fill="#FFFF00" stroke="black" stroke-width="0.0213861"/>
<path fill-rule="evenodd" clip-rule="evenodd" d="M6.97843 9.02649C6.97843 9.05581 6.96624 9.08392 6.94455 9.10465C6.92285 9.12538 6.89343 9.13703 6.86275 9.13703C6.83207 9.13703 6.80265 9.12538 6.78095 9.10465C6.75926 9.08392 6.74707 9.05581 6.74707 9.02649C6.74707 8.99718 6.75926 8.96906 6.78095 8.94833C6.80265 8.9276 6.83207 8.91595 6.86275 8.91595C6.89343 8.91595 6.92285 8.9276 6.94455 8.94833C6.96624 8.96906 6.97843 8.99718 6.97843 9.02649Z" fill="#FFFF00" stroke="black" stroke-width="0.0213861"/>
<path fill-rule="evenodd" clip-rule="evenodd" d="M7.40332 5.1582C7.11035 5.1582 7.07227 5.20215 6.94043 5.24609C6.94043 5.12012 7.26563 4.9707 7.55859 4.9707C7.55859 5.06445 7.48242 5.15527 7.40332 5.15527V5.1582Z" fill="#DA4500"/>
<path fill-rule="evenodd" clip-rule="evenodd" d="M7.85156 4.85938C7.85156 4.9209 7.79883 4.9707 7.73438 4.9707C7.66992 4.9707 7.61719 4.9209 7.61719 4.85938C7.61719 4.79785 7.66992 4.74805 7.73438 4.74805C7.79883 4.74805 7.85156 4.79785 7.85156 4.85938Z" fill="#CAC9C7"/>
<path fill-rule="evenodd" clip-rule="evenodd" d="M6.62762 4.47093V4.63713H6.91804V5.46969H7.09361V4.63713H7.38404V4.47093H7.09361V4.24829H6.9164V4.47093H6.62598H6.62762Z" fill="#FFFF00" stroke="black" stroke-width="0.0213861"/>
<path fill-rule="evenodd" clip-rule="evenodd" d="M7.55859 4.9707C7.32234 4.95768 7.08575 4.98949 6.86133 5.06445C6.86133 4.8916 7.06055 4.69238 7.40332 4.69238C7.48242 4.69238 7.55859 4.87695 7.55859 4.9707Z" fill="#DA4500"/>
<path fill-rule="evenodd" clip-rule="evenodd" d="M4.53551 7.91991C4.45183 7.73953 4.45377 7.68196 4.60264 7.88835L6.39582 11.2879L6.34093 11.3034L4.53644 7.92062L4.53551 7.91991Z" fill="#008500" stroke="black" stroke-width="0.00786319"/>
<path fill-rule="evenodd" clip-rule="evenodd" d="M5.75154 10.1562C5.77205 9.90428 5.31209 9.63182 5.29158 9.64939C5.274 9.66697 5.32088 9.81346 5.40877 9.88963C5.23885 9.80467 5.06306 9.75193 5.0572 9.79002C5.04549 9.83983 5.32088 9.95994 5.34431 10.0068C5.34431 10.039 5.13924 10.0361 5.1451 10.0683C5.14803 10.1035 5.72224 10.3906 5.75154 10.1562ZM5.29158 9.42381C5.30916 9.17186 4.8492 8.89647 4.82869 8.91697C4.81111 8.93455 4.85799 9.08104 4.94588 9.15721C4.77888 9.06932 4.6031 9.01658 4.59724 9.05467C4.58552 9.10447 4.86092 9.22459 4.88142 9.27147C4.88435 9.30662 4.67927 9.30076 4.68513 9.33592C4.68806 9.36815 5.26228 9.65818 5.29158 9.42381ZM4.94002 8.75584C4.9576 8.50389 4.4947 8.23143 4.47713 8.249C4.45955 8.26658 4.50642 8.41307 4.59431 8.48924C4.42439 8.40135 4.24861 8.35154 4.24568 8.38963C4.23103 8.43943 4.50935 8.55955 4.52986 8.60643C4.53279 8.63865 4.32771 8.63572 4.33064 8.66795C4.3365 8.70018 4.90779 8.99022 4.93709 8.75584H4.94002ZM4.58845 8.03514C4.60896 7.78318 4.149 7.50779 4.12849 7.5283C4.11092 7.54588 4.15779 7.69236 4.24568 7.76854C4.07576 7.68065 3.89998 7.62791 3.89705 7.666C3.8824 7.7158 4.15779 7.83592 4.18123 7.88279C4.18416 7.91795 3.97908 7.91209 3.98201 7.94725C3.98494 7.97654 4.55916 8.26951 4.58845 8.03514Z" fill="#008F00"/>
<path fill-rule="evenodd" clip-rule="evenodd" d="M4.70835 8C4.93393 7.86524 4.88999 7.34961 4.86362 7.34668C4.83725 7.34082 4.74057 7.46387 4.72885 7.57813C4.69956 7.39649 4.64096 7.22949 4.61167 7.25C4.55893 7.27051 4.62046 7.55176 4.59409 7.59864C4.56772 7.61914 4.4476 7.46094 4.42417 7.48145C4.3978 7.50489 4.49448 8.11719 4.70835 8ZM5.03061 8.63575C5.29135 8.57715 5.42905 8.0791 5.40854 8.06739C5.3851 8.05567 5.25034 8.14063 5.20053 8.24317C5.23862 8.06446 5.23862 7.88867 5.20053 7.89453C5.1478 7.89746 5.10385 8.18164 5.06577 8.2168C5.03354 8.23145 4.97788 8.04102 4.94565 8.05567C4.91342 8.06739 4.79038 8.67676 5.03354 8.63575H5.03061ZM5.42026 9.28321C5.65464 9.16602 5.66049 8.65039 5.63413 8.64453C5.60776 8.63867 5.50229 8.75293 5.47885 8.86426C5.46714 8.68262 5.42612 8.5127 5.39096 8.52735C5.33823 8.542 5.37046 8.8291 5.34116 8.87305C5.31186 8.89063 5.21225 8.72071 5.18296 8.74121C5.15366 8.76172 5.19467 9.38281 5.41733 9.28321H5.42026ZM5.83628 10.1328C6.08237 10.0391 6.14389 9.52344 6.11753 9.51758C6.09409 9.50586 5.97397 9.6084 5.94174 9.7168C5.95053 9.53516 5.92417 9.36231 5.88901 9.37403C5.83335 9.38574 5.83921 9.67285 5.80405 9.71387C5.77475 9.73145 5.68979 9.55274 5.66049 9.56739C5.6312 9.58789 5.6019 10.2061 5.83628 10.1299V10.1328Z" fill="#008F00"/>
<path fill-rule="evenodd" clip-rule="evenodd" d="M6.37943 11.0128C6.31705 11.1195 6.11972 11.1292 5.93634 11.0314C5.75296 10.9335 5.65801 10.7679 5.7204 10.6612C5.78279 10.5544 5.98155 10.5455 6.1635 10.6426C6.34545 10.7396 6.44182 10.906 6.37943 11.0128Z" fill="#FF1900" stroke="black" stroke-width="0.0213941"/>
<path fill-rule="evenodd" clip-rule="evenodd" d="M11.1131 7.43592L11.1439 7.35623L11.2271 7.38242L11.258 7.30274L11.3411 7.32893L11.3107 7.40749L11.3962 7.43443L11.3649 7.51523L11.2794 7.48829L11.2024 7.68694L11.1193 7.66075L11.1962 7.46211L11.1131 7.43592ZM10.9345 8.13773L11.0176 8.16392L10.124 10.4703L10.0409 10.4441L10.9345 8.13773Z" fill="#FFFF00" stroke="black" stroke-width="0.00734614"/>
<path fill-rule="evenodd" clip-rule="evenodd" d="M10.0132 10.3913L10.1819 10.4445L9.93536 11.0808L9.76667 11.0277L10.0132 10.3913ZM11.0051 7.71426L11.2581 7.79395C11.4256 7.8467 11.0458 8.21818 11.0458 8.21818L10.8783 8.16542C10.8783 8.16542 10.8364 7.66113 11.0051 7.71426ZM11.2377 7.7195C11.2246 7.75317 11.1773 7.7685 11.131 7.75391C11.0847 7.73932 11.0571 7.70042 11.0697 7.66787C11.0823 7.63532 11.13 7.61886 11.1764 7.63345C11.2227 7.64804 11.2503 7.68695 11.2372 7.72062L11.2377 7.7195Z" fill="#FFFF00" stroke="black" stroke-width="0.00734614"/>
<path fill-rule="evenodd" clip-rule="evenodd" d="M10.1505 10.7243C10.2212 10.8262 10.1396 10.9982 9.96454 11.109C9.78943 11.2198 9.59191 11.2245 9.52124 11.1225C9.45056 11.0206 9.53348 10.8477 9.70722 10.7378C9.88096 10.6278 10.0799 10.6223 10.1505 10.7243Z" fill="#FF1900" stroke="black" stroke-width="0.0213957"/>
</g>
</g>
<defs>
<clipPath id="clip0_6_1050">
<rect width="15" height="15" fill="white" transform="translate(0.410156 0.5)"/>
</clipPath>
<clipPath id="clip1_6_1050">
<rect width="15" height="15" fill="white" transform="translate(0.410156 0.5)"/>
</clipPath>
</defs>
</svg>
