<svg width="32" height="32" viewBox="0 0 32 32" fill="none" xmlns="http://www.w3.org/2000/svg">
<path fill-rule="evenodd" clip-rule="evenodd" d="M3.79577 8.5462C4.14243 8.11625 4.77197 8.04873 5.20192 8.39538L13.898 15.4068C15.1567 16.4049 16.9391 16.4053 18.1981 15.408L26.8189 8.398C27.2475 8.04956 27.8773 8.11446 28.2257 8.54297C28.5741 8.97148 28.5093 9.6013 28.0808 9.94973L19.4464 16.9706C17.4579 18.5508 14.6399 18.5506 12.6512 16.9706L12.6456 16.9661L3.94659 9.95234C3.51664 9.60569 3.44912 8.97614 3.79577 8.5462Z" fill="#142653"/>
<path d="M21.9093 27.8H10.0906C9.19008 27.8126 8.29615 27.6442 7.46182 27.305C6.62747 26.9659 5.86968 26.4627 5.23331 25.8254C4.50244 25.0692 3.92883 24.1756 3.54571 23.1963C3.16258 22.217 2.97754 21.1714 3.00131 20.12V11.884C2.94271 10.9078 3.08219 9.92984 3.41138 9.00895C3.74056 8.08805 4.25263 7.24327 4.91679 6.52543C5.58095 5.80759 6.38346 5.23152 7.27604 4.83188C8.16863 4.43225 9.13283 4.21732 10.1106 4.20001H21.892C22.8698 4.21732 23.834 4.43225 24.7266 4.83188C25.6192 5.23152 26.4217 5.80759 27.0858 6.52543C27.75 7.24327 28.2621 8.08805 28.5912 9.00895C28.9204 9.92984 29.06 10.9078 29.0013 11.884V20.12C29.0244 21.1704 28.839 22.2151 28.4558 23.1935C28.0728 24.1718 27.4996 25.0646 26.7693 25.82C26.133 26.4586 25.375 26.9628 24.5401 27.303C23.7053 27.6431 22.8106 27.8122 21.9093 27.8ZM10.108 25.8H21.9066C22.5454 25.8111 23.18 25.6938 23.7725 25.4548C24.365 25.216 24.9036 24.8604 25.356 24.4094C25.9001 23.8386 26.3256 23.1656 26.608 22.4294C26.8904 21.6931 27.0241 20.9083 27.0013 20.12V11.884C27.0013 8.59068 24.8533 6.20001 21.892 6.20001H10.1106C7.14931 6.20001 5.00131 8.59068 5.00131 11.884V20.12C4.97923 20.9074 5.11324 21.6912 5.39563 22.4266C5.67803 23.1618 6.1032 23.8339 6.64664 24.404C7.09874 24.8548 7.63678 25.2102 8.22884 25.4491C8.82091 25.688 9.45495 25.8055 10.0933 25.7947L10.108 25.8Z" fill="#142653"/>
</svg>
