<svg width="32" height="32" viewBox="0 0 32 32" fill="none" xmlns="http://www.w3.org/2000/svg">
<path fill-rule="evenodd" clip-rule="evenodd" d="M16.332 2.66699C22.3974 2.66699 27.332 7.63899 27.332 13.751C27.332 21.2643 18.724 28.667 16.332 28.667C13.94 28.667 5.33203 21.2643 5.33203 13.751C5.33203 7.63899 10.2667 2.66699 16.332 2.66699ZM16.332 4.66699C11.3694 4.66699 7.33203 8.74299 7.33203 13.751C7.33203 20.123 14.8307 26.331 16.332 26.6617C17.8334 26.3297 25.332 20.1217 25.332 13.751C25.332 8.74299 21.2947 4.66699 16.332 4.66699ZM16.3334 9.33366C18.7227 9.33366 20.6667 11.2777 20.6667 13.6683C20.6667 16.0577 18.7227 18.0003 16.3334 18.0003C13.944 18.0003 12 16.0577 12 13.6683C12 11.2777 13.944 9.33366 16.3334 9.33366ZM16.3334 11.3337C15.0467 11.3337 14 12.3803 14 13.6683C14 14.955 15.0467 16.0003 16.3334 16.0003C17.62 16.0003 18.6667 14.955 18.6667 13.6683C18.6667 12.3803 17.62 11.3337 16.3334 11.3337Z" fill="#142653"/>
</svg>
