<svg width="32" height="32" viewBox="0 0 32 32" fill="none" xmlns="http://www.w3.org/2000/svg">
<path fill-rule="evenodd" clip-rule="evenodd" d="M5.81353 6.74775C5.81619 6.74775 5.74953 6.81709 5.66553 6.89975C5.34286 7.21309 4.67486 7.86509 4.66813 9.22908C4.65753 11.1371 5.91219 14.6798 11.9535 20.7198C17.9669 26.7304 21.5042 27.9998 23.4162 27.9998H23.4442C24.8082 27.9931 25.4589 27.3237 25.7735 27.0024C25.8695 26.9037 25.9469 26.8318 26.0015 26.7864C27.3295 25.4504 28.0095 24.4558 28.0029 23.8184C27.9935 23.1678 27.1842 22.3984 26.0655 21.3344C25.7095 20.9958 25.3229 20.6278 24.9149 20.2198C23.8575 19.1651 23.3335 19.3451 22.1815 19.7504C20.5882 20.3091 18.4015 21.0691 15.0042 17.6704C11.6015 14.2704 12.3629 12.0864 12.9202 10.4931C13.3229 9.34108 13.5069 8.81575 12.4482 7.75709C12.0335 7.34375 11.6615 6.95175 11.3189 6.59175C10.2615 5.47975 9.49886 4.67575 8.85219 4.66642H8.84153C8.20286 4.66642 7.21086 5.34909 5.80686 6.75309C5.81086 6.74909 5.81353 6.74775 5.81353 6.74775ZM23.4175 29.9998C20.0949 29.9998 15.7629 27.3544 10.5402 22.1344C5.29753 16.8931 2.64819 12.5478 2.66808 9.21842C2.68019 7.01842 3.83353 5.89175 4.26686 5.46909C4.28953 5.44109 4.36686 5.36509 4.39353 5.33842C6.30553 3.42509 7.59486 2.65175 8.87753 2.66621C10.3669 2.68642 11.4269 3.80109 12.7682 5.21309C13.1002 5.56242 13.4602 5.94242 13.8615 6.34242C15.8082 8.28909 15.2535 9.87708 14.8082 11.1518C14.3229 12.5424 13.9029 13.7424 16.4175 16.2571C18.9349 18.7718 20.1349 18.3518 21.5202 17.8624C22.7962 17.4171 24.3802 16.8598 26.3295 18.8064C26.7242 19.2011 27.0989 19.5571 27.4442 19.8864C28.8629 21.2344 29.9829 22.2998 30.0018 23.7931C30.0175 25.0664 29.2442 26.3638 27.3349 28.2744L26.4895 27.7011L27.2042 28.3998C26.7815 28.8331 25.6562 29.9878 23.4549 29.9998H23.4175Z" fill="#142653"/>
</svg>
