<svg width="20" height="17" viewBox="0 0 20 17" fill="none" xmlns="http://www.w3.org/2000/svg">
<path d="M7.27038 16.3556H0V11.2131C0 9.13216 0.181113 7.49474 0.543338 6.30078C0.922812 5.08977 1.61276 4.00668 2.6132 3.05151C3.61363 2.09635 4.89004 1.34586 6.44243 0.800049L7.86546 3.76788C6.41656 4.24547 5.37301 4.91067 4.7348 5.7635C4.11384 6.61633 3.78611 7.75058 3.75162 9.16628H7.27038V16.3556ZM19.4049 16.3556H12.1345V11.2131C12.1345 9.11511 12.3157 7.46915 12.6779 6.27519C13.0574 5.08124 13.7473 4.00668 14.7477 3.05151C15.7654 2.09635 17.0418 1.34586 18.577 0.800049L20 3.76788C18.5511 4.24547 17.5075 4.91067 16.8693 5.7635C16.2484 6.61633 15.9207 7.75058 15.8862 9.16628H19.4049V16.3556Z" fill="#1351D8"/>
</svg>
