<svg width="40" height="41" viewBox="0 0 40 41" fill="none" xmlns="http://www.w3.org/2000/svg">
<g clip-path="url(#clip0_6_218)">
<path fill-rule="evenodd" clip-rule="evenodd" d="M32.9706 19.257C35.2349 21.7661 36.923 23.9431 38.0347 25.8949C42.1059 33.0435 36.3142 40.304 28.5577 40.1733C20.8013 40.304 15.0095 33.0435 19.0808 25.8949C20.1925 23.9431 21.8806 21.7661 24.1449 19.257C24.4151 19.3426 24.7026 19.3889 25.0006 19.3889H32.1149C32.4129 19.3889 32.7004 19.3426 32.9706 19.257ZM4.17712 1.42517C2.22345 1.42517 0.625092 3.02361 0.625092 4.9772V30.9442C0.625092 32.8979 2.22345 34.4963 4.17712 34.4963H17.2574C15.979 31.4415 16.3658 28.1364 17.9947 25.2763C18.3274 24.6921 18.6924 24.1131 19.0816 23.5411C18.8565 23.3955 18.707 23.1422 18.707 22.8551V21.7935C18.707 21.3438 19.0738 20.977 19.5235 20.977H21.0045C21.6665 20.1633 22.3552 19.3713 23.0445 18.6067C22.841 18.4137 22.666 18.1909 22.5264 17.9455H19.5235C19.0738 17.9455 18.707 17.5787 18.707 17.1289V16.0673C18.707 15.6175 19.0738 15.2507 19.5235 15.2507H22.4681C22.7218 14.7566 23.1161 14.3456 23.5975 14.0711L22.7489 13.2226C22.2324 12.7061 21.9532 12.0401 21.9109 11.3618H5.36111C4.91134 11.3618 4.54454 10.995 4.54454 10.5452V7.34017C4.54454 6.89041 4.91134 6.52361 5.36111 6.52361H23.3257C23.7755 6.52361 24.1423 6.89041 24.1423 7.34017V8.36775C24.7185 8.23556 25.3314 8.27955 25.8916 8.50931C26.2703 7.60275 27.0919 6.944 28.0618 6.77423V4.9772C28.0618 3.02361 26.4634 1.42517 24.5098 1.42517H4.17712ZM25.0006 18.1389C24.1234 18.1389 23.406 17.4213 23.406 16.5442C23.406 15.6672 24.1235 14.9496 25.0006 14.9496H32.1149C32.992 14.9496 33.7096 15.6672 33.7096 16.5443C33.7096 17.4213 32.992 18.1389 32.1149 18.1389H25.0006ZM6.11134 15.2507H9.16329C9.61306 15.2507 9.97986 15.6175 9.97986 16.0673V17.1288C9.97986 17.5786 9.61306 17.9454 9.16329 17.9454H6.11134C5.66158 17.9454 5.29478 17.5786 5.29478 17.1288V16.0673C5.29478 15.6175 5.66158 15.2507 6.11134 15.2507ZM12.8174 26.7031C12.3677 26.7031 12.0009 27.0699 12.0009 27.5197V28.5813C12.0009 29.031 12.3677 29.3978 12.8174 29.3978H15.8694C16.3192 29.3978 16.686 29.031 16.686 28.5813V27.5197C16.686 27.0699 16.3192 26.7031 15.8694 26.7031H12.8174ZM6.11134 26.7031H9.16329C9.61306 26.7031 9.97986 27.0699 9.97986 27.5197V28.5813C9.97986 29.031 9.61306 29.3978 9.16329 29.3978H6.11134C5.66158 29.3978 5.29478 29.031 5.29478 28.5813V27.5197C5.29478 27.0699 5.66158 26.7031 6.11134 26.7031ZM12.8174 20.9769C12.3677 20.9769 12.0009 21.3437 12.0009 21.7935V22.855C12.0009 23.3048 12.3677 23.6716 12.8174 23.6716H15.8694C16.3192 23.6716 16.686 23.3048 16.686 22.855V21.7935C16.686 21.3437 16.3192 20.9769 15.8694 20.9769H12.8174ZM6.11134 20.9769H9.16329C9.61306 20.9769 9.97986 21.3437 9.97986 21.7935V22.855C9.97986 23.3048 9.61306 23.6716 9.16329 23.6716H6.11134C5.66158 23.6716 5.29478 23.3048 5.29478 22.855V21.7935C5.29478 21.3438 5.66158 20.9769 6.11134 20.9769ZM12.8174 15.2507H15.8694C16.3192 15.2507 16.686 15.6175 16.686 16.0673V17.1288C16.686 17.5786 16.3192 17.9454 15.8694 17.9454H12.8174C12.3677 17.9454 12.0009 17.5786 12.0009 17.1288V16.0673C12.0009 15.6175 12.3677 15.2507 12.8174 15.2507ZM28.476 32.6741C27.9967 32.6616 27.5315 32.5318 27.1606 32.2848C26.825 32.0613 26.5686 31.7343 26.4615 31.3048C26.3661 30.917 25.9745 30.68 25.5867 30.7754C25.199 30.8708 24.962 31.2624 25.0574 31.6502C25.2596 32.4615 25.738 33.0749 26.3624 33.4908C26.7888 33.7749 27.2842 33.9626 27.8028 34.0541V34.6167C27.8028 35.0169 28.1273 35.3414 28.5276 35.3414C28.9278 35.3414 29.2523 35.017 29.2523 34.6167V34.0679C29.8826 33.9718 30.5248 33.7417 31.029 33.3592C31.6349 32.8995 32.038 32.2411 32.017 31.3576C32.0145 31.2564 32.0088 31.1674 31.9995 31.0914C31.882 30.1233 31.3583 29.4931 30.6638 29.0738C30.0538 28.7055 29.3222 28.522 28.6515 28.412C28.1677 28.3325 27.6582 28.1981 27.2851 27.9545C26.996 27.7658 26.7886 27.4925 26.7692 27.093C26.7481 26.6606 26.9369 26.3118 27.2343 26.07C27.4673 25.8806 27.7645 25.749 28.0867 25.6842C28.2163 25.6581 28.3497 25.643 28.4844 25.6395C28.4987 25.6403 28.513 25.6408 28.5275 25.6408C28.5449 25.6408 28.5622 25.6402 28.5794 25.6389C28.7575 25.6415 28.937 25.6644 29.1122 25.7088C29.6509 25.8453 30.1414 26.2004 30.3998 26.8156C30.5545 27.1846 30.9792 27.3582 31.3481 27.2035C31.7171 27.0487 31.8907 26.624 31.736 26.2551C31.2811 25.1718 30.4152 24.5459 29.4632 24.3046C29.3934 24.2869 29.3231 24.2713 29.2523 24.258V23.6964C29.2523 23.2962 28.9278 22.9717 28.5276 22.9717C28.1274 22.9717 27.8028 23.2962 27.8028 23.6964V24.2688C27.2537 24.3795 26.7381 24.6113 26.3227 24.949C25.6845 25.468 25.2797 26.2215 25.3253 27.161C25.3711 28.105 25.8422 28.7382 26.4981 29.1663C27.0698 29.5395 27.7719 29.7327 28.4194 29.8389C28.9394 29.9243 29.4946 30.0592 29.9164 30.3139C30.2538 30.5176 30.5073 30.8153 30.5614 31.2614C30.5686 31.3209 30.5725 31.3641 30.5731 31.3917C30.5816 31.7463 30.4119 32.0166 30.157 32.2099C29.8381 32.452 29.3901 32.5947 28.9421 32.6491C28.8202 32.6638 28.7136 32.6723 28.6233 32.6744L28.5888 32.675C28.5685 32.6733 28.5481 32.6724 28.5275 32.6724C28.5102 32.6722 28.493 32.6729 28.476 32.6741ZM24.9938 13.6997L23.6328 12.3387C22.9955 11.7013 22.9955 10.6585 23.6328 10.0212C24.1749 9.47908 25.033 9.38752 25.678 9.8015C25.9176 9.95525 26.1927 9.97978 26.4556 9.87095C26.7185 9.76205 26.8957 9.55025 26.9564 9.27205C27.117 8.53642 27.7756 7.98119 28.5577 7.98103C29.3256 7.98103 29.9955 8.52236 30.1592 9.27205C30.2199 9.55025 30.397 9.76205 30.6599 9.87095C30.923 9.97994 31.1981 9.95525 31.4375 9.8015C32.0712 9.39478 32.9297 9.46814 33.4827 10.021V10.0212C34.12 10.6585 34.12 11.7014 33.4827 12.3387L32.1217 13.6997L32.1149 13.6996H25.0006L24.9938 13.6997Z" fill="#1351D8"/>
</g>
<defs>
<clipPath id="clip0_6_218">
<rect width="40" height="40" fill="white" transform="translate(0 0.800049)"/>
</clipPath>
</defs>
</svg>
