<svg width="40" height="41" viewBox="0 0 40 41" fill="none" xmlns="http://www.w3.org/2000/svg">
<g clip-path="url(#clip0_6_205)">
<path d="M27.1094 19.7063H1.17191C0.524171 19.7063 3.05176e-05 20.2304 3.05176e-05 20.8782V37.2844C3.05176e-05 39.223 1.57706 40.8 3.51566 40.8H24.7657C26.7042 40.8 28.2813 39.223 28.2813 37.2844V20.8782C28.2813 20.2304 27.7571 19.7063 27.1094 19.7063ZM21.0938 26.7375C21.0938 30.6148 17.9398 33.7688 14.0625 33.7688C10.1853 33.7688 7.03128 30.6148 7.03128 26.7375V25.5657C7.03128 24.9179 7.55542 24.3938 8.20316 24.3938C8.85089 24.3938 9.37503 24.9179 9.37503 25.5657V26.7375C9.37503 29.3228 11.4773 31.425 14.0625 31.425C16.6478 31.425 18.75 29.3228 18.75 26.7375V25.5657C18.75 24.9179 19.2742 24.3938 19.9219 24.3938C20.5696 24.3938 21.0938 24.9179 21.0938 25.5657V26.7375Z" fill="#1351D8"/>
<path d="M38.8282 10.3313H32.8125V7.8313C32.8125 3.95403 29.6585 0.800049 25.7813 0.800049C21.904 0.800049 18.75 3.95403 18.75 7.8313V10.3313H12.7344C12.0867 10.3313 11.5625 10.8554 11.5625 11.5032V17.3625H27.1094C29.048 17.3625 30.625 18.9396 30.625 20.8782V37.2844C30.625 38.6085 30.1668 39.8177 29.4232 40.8H36.4844C38.423 40.8 40 39.223 40 37.2844V11.5032C40 10.8554 39.4759 10.3313 38.8282 10.3313ZM30.4688 10.3313H21.0938V7.8313C21.0938 5.24606 23.196 3.1438 25.7813 3.1438C28.3665 3.1438 30.4688 5.24606 30.4688 7.8313V10.3313Z" fill="#1351D8"/>
</g>
<defs>
<clipPath id="clip0_6_205">
<rect width="40" height="40" fill="white" transform="translate(3.05176e-05 0.800049)"/>
</clipPath>
</defs>
</svg>
