<svg width="40" height="41" viewBox="0 0 40 41" fill="none" xmlns="http://www.w3.org/2000/svg">
<g clip-path="url(#clip0_6_234)">
<path d="M40.0009 29.2203C39.9071 24.0016 39.2907 18.7242 38.2798 13.3977C37.4564 9.69691 34.4939 6.40081 29.7603 6.15941C26.2657 6.01566 25.5899 8.00628 21.6306 7.968C20.5462 7.96097 19.4626 7.96097 18.3782 7.968C14.4181 8.00628 13.7407 6.01566 10.2478 6.15941C5.51339 6.40081 2.4587 9.68831 1.72511 13.3977C0.713388 18.7242 0.0969818 24.0008 0.00401304 29.2196C-0.0186432 32.8532 3.56886 35.2703 5.93604 35.436C10.5087 35.7813 14.1415 27.718 16.9095 27.7172C18.9728 27.7289 21.0353 27.7297 23.0985 27.7172C25.8673 27.7172 29.497 35.7821 34.0728 35.4368C36.4392 35.2711 40.1196 32.8375 40.0017 29.2203H40.0009ZM14.9181 19.0375H12.7853V21.1703C12.7853 22.0703 12.0556 22.8 11.1556 22.8C10.2556 22.8 9.52589 22.0703 9.52589 21.1703V19.0375H7.39308C6.49308 19.0375 5.76339 18.3078 5.76339 17.4078C5.76339 16.5078 6.49308 15.7782 7.39308 15.7782H9.52589V13.6453C9.52589 12.7453 10.2556 12.0157 11.1556 12.0157C12.0556 12.0157 12.7853 12.7453 12.7853 13.6453V15.7782H14.9181C15.8181 15.7782 16.5478 16.5078 16.5478 17.4078C16.5478 18.3078 15.8181 19.0375 14.9181 19.0375ZM28.0876 22.7992C26.8118 22.8336 25.7509 21.8258 25.7165 20.5508C25.6829 19.2711 26.6915 18.2086 27.9665 18.1758C29.2431 18.1438 30.3056 19.1508 30.3384 20.4274C30.3704 21.7039 29.3634 22.7664 28.0876 22.7992ZM31.9353 16.6391C30.6595 16.675 29.5962 15.6664 29.561 14.3907C29.529 13.1125 30.536 12.0516 31.8126 12.0164C33.0907 11.9828 34.1517 12.9914 34.186 14.268C34.2196 15.5438 33.2103 16.6071 31.9353 16.6391Z" fill="#1351D8"/>
</g>
<defs>
<clipPath id="clip0_6_234">
<rect width="40" height="40" fill="white" transform="translate(0 0.800049)"/>
</clipPath>
</defs>
</svg>
