<svg width="41" height="41" viewBox="0 0 41 41" fill="none" xmlns="http://www.w3.org/2000/svg">
<g clip-path="url(#clip0_6_192)">
<path d="M39.6865 32.6476C38.6061 32.9904 37.5869 33.5025 36.6672 34.1649C35.8175 34.7352 34.4403 35.3373 33.6934 34.6663C32.6216 33.7007 34.734 31.3014 34.734 28.7973C34.7265 26.8573 33.3637 25.4442 30.992 24.92C30.3579 24.7909 29.7698 24.4948 29.2885 24.0621C29.5852 23.248 29.6495 22.3673 29.474 21.5187C30.6189 20.3263 32.494 20.2718 34.4437 18.1394C39.5996 20.9616 41.8472 27.1814 39.6865 32.6476ZM28.5582 16.6669C30.1222 16.6348 31.6764 16.9218 33.1258 17.5104C31.5209 19.0607 30.2603 19.1138 29.0285 20.0621L28.063 17.1607L28.5582 16.6669ZM26.9499 13.5097C27.4134 13.0456 27.5072 12.889 27.7775 12.8835C28.0127 12.8683 28.0416 12.9594 28.8734 13.7925C29.0394 13.9866 29.0201 14.2778 28.8299 14.4483L27.5768 15.7007L26.8658 13.5676C26.8952 13.5504 26.9233 13.531 26.9499 13.5097ZM17.8851 3.50833C17.9794 3.41221 18.107 3.35594 18.2416 3.35108C18.3534 3.34576 18.4624 3.38666 18.543 3.46419L19.3368 4.25867C19.5015 4.45376 19.4823 4.7442 19.2934 4.91591L19.1092 5.10005L16.8968 4.4966L17.8851 3.50833ZM12.7685 10.5007C12.7412 10.5042 12.714 10.509 12.6871 10.5152C12.5739 10.5446 12.4535 10.5136 12.3685 10.4332C12.2883 10.3475 12.2571 10.227 12.2858 10.1132C12.2921 10.087 12.2967 10.0606 12.2996 10.0338C12.3669 9.7669 12.4593 9.5069 12.5754 9.25729L14.0237 9.98074C13.6338 10.2161 13.2106 10.3914 12.7685 10.5007ZM20.9258 14.4056C18.5844 16.7456 16.8527 17.8704 13.7768 20.0676C13.3578 20.3656 13.1658 20.8911 13.294 21.389L13.9009 23.8166L13.4727 24.2449L8.09336 18.8656L8.52163 18.438L10.9492 19.0456C11.4481 19.1712 11.9729 18.9775 12.2706 18.558C14.4534 15.5028 15.6023 13.7407 17.9334 11.4097C18.0897 11.2529 18.1612 11.0307 18.1257 10.8122C18.0902 10.5936 17.9519 10.4055 17.754 10.3063L7.48439 5.17108C8.30787 4.28249 9.55663 3.92461 10.7258 4.24212L21.4375 7.16488C21.7952 7.26081 22.177 7.15914 22.4396 6.89798L25.474 3.8635C27.9782 1.36005 29.972 1.39108 30.7844 1.55108C30.8803 2.09384 30.9913 4.07108 28.4492 6.88488C27.1347 8.34005 25.4665 10.029 24.9871 10.5111C24.7108 10.7872 24.6153 11.1963 24.7409 11.5663L28.092 21.6138C28.41 22.7829 28.0523 24.0318 27.1637 24.8552L22.0306 14.5842C21.9314 14.3859 21.7428 14.2474 21.5239 14.212C21.305 14.1766 21.0824 14.2486 20.9258 14.4056ZM22.3534 18.3152L23.0768 19.7635C22.8041 19.8936 22.5164 19.9897 22.2203 20.0497C22.1069 20.082 21.9849 20.0503 21.9016 19.967C21.8182 19.8836 21.7866 19.7617 21.8189 19.6483C21.9215 19.1779 22.1022 18.728 22.3534 18.3173V18.3152ZM17.4258 25.4897C17.8916 26.3362 18.6279 27.0021 19.5168 27.3807C21.034 28.009 23.0161 27.7801 22.9106 29.0394C22.8135 29.7488 22.6147 30.4405 22.3203 31.0932C21.4927 33.209 21.5437 33.7883 21.792 35.2311C22.0053 36.0624 21.9932 36.9356 21.7568 37.7607C17.9456 34.9365 16.2318 30.0805 17.4258 25.4897ZM27.0575 39.9814C28.5747 38.9669 30.203 38.4504 33.0575 38.6587C33.4241 38.6879 33.7889 38.7358 34.1506 38.8021C31.9691 39.9315 29.487 40.3442 27.0575 39.9814ZM35.7913 37.7787C33.6244 37.1421 31.3321 37.0614 29.1258 37.5442C27.7138 37.9173 26.4082 38.6143 25.3127 39.5801C24.4987 39.3265 23.7149 38.9844 22.9754 38.5601C23.3687 37.4142 23.4297 36.1805 23.1513 35.0014C22.9444 33.8007 22.8809 33.4456 23.6044 31.5987C23.9504 30.8231 24.1798 30.0007 24.2851 29.158C24.3884 28.1825 23.8264 27.2584 22.9127 26.9014C21.8858 26.4518 20.8871 26.458 20.0437 26.109C19.0261 25.597 18.3127 24.6315 18.1223 23.5083C18.6087 22.4362 19.2562 21.4447 20.0423 20.5683C20.1803 20.4111 20.3382 20.2725 20.4858 20.1242C20.5532 20.4322 20.7057 20.715 20.9258 20.9407C21.7016 21.7173 22.7189 21.4504 23.6947 20.9973L26.0085 25.6276C26.1889 25.9871 26.5308 26.2382 26.9278 26.3027C27.3248 26.3671 27.7285 26.2371 28.0134 25.9532C28.2255 25.7537 28.4223 25.5386 28.6023 25.3097C29.2219 25.778 29.9362 26.1054 30.6954 26.269C31.9051 26.5359 33.3485 27.1938 33.3547 28.8021C33.3547 30.5821 32.054 32.1373 32.0168 33.8628C31.9809 35.5338 33.3899 36.5269 35.0016 36.3132C36.6568 36.0994 37.5858 35.0945 38.7947 34.4766C38.0154 35.7603 36.9956 36.8815 35.7913 37.7787Z" fill="#1351D8"/>
<path d="M9.74986 38.7918C5.60434 36.9256 3.12158 34.1159 2.37469 30.4408C1.27951 25.0552 4.26227 18.8401 7.49675 15.3442C7.74883 15.0638 7.72898 14.6329 7.4522 14.3769C7.17541 14.1208 6.7443 14.1345 6.48434 14.4077C2.90296 18.2787 -0.17497 24.8221 1.02296 30.7159C1.86365 34.8497 4.60917 37.9904 9.18296 40.0497C9.53033 40.2063 9.93883 40.0516 10.0954 39.7042C10.2519 39.3568 10.0972 38.9483 9.74986 38.7918Z" fill="#1351D8"/>
<path d="M7.0471 29.5766C6.81826 27.8168 7.37719 26.0456 8.57469 24.7359C8.83605 24.4653 8.83231 24.0352 8.56629 23.7691C8.30026 23.5031 7.87012 23.4994 7.59952 23.7607C6.11023 25.363 5.40519 27.5415 5.67331 29.7125C5.98572 32.8614 7.93124 35.7814 11.1519 37.9256C11.4688 38.137 11.8971 38.0514 12.1085 37.7345C12.3199 37.4176 12.2343 36.9894 11.9174 36.778C9.0471 34.8642 7.31745 32.3069 7.0471 29.5766Z" fill="#1351D8"/>
<path d="M12.0471 30.8869C11.8637 29.932 12.1068 28.9447 12.7126 28.1841C12.974 27.9135 12.9702 27.4834 12.7042 27.2174C12.4382 26.9514 12.008 26.9476 11.7374 27.209C10.003 28.9435 10.1437 32.7952 13.1168 35.7704C13.3874 36.0317 13.8175 36.028 14.0835 35.762C14.3495 35.4959 14.3533 35.0658 14.0919 34.7952C12.9989 33.7529 12.2801 32.3792 12.0471 30.8869Z" fill="#1351D8"/>
<path d="M8.77756 13.9035C9.15845 13.9035 9.46722 13.5947 9.46722 13.2138C9.46722 12.8329 9.15845 12.5242 8.77756 12.5242C8.39668 12.5242 8.08791 12.8329 8.08791 13.2138C8.08791 13.5947 8.39668 13.9035 8.77756 13.9035Z" fill="#1351D8"/>
</g>
<defs>
<clipPath id="clip0_6_192">
<rect width="40" height="40" fill="white" transform="translate(0.500015 0.800049)"/>
</clipPath>
</defs>
</svg>
