<svg width="40" height="41" viewBox="0 0 40 41" fill="none" xmlns="http://www.w3.org/2000/svg">
<path fill-rule="evenodd" clip-rule="evenodd" d="M24.0359 37.1461C24.0359 35.7636 22.9152 34.6428 21.5327 34.6428H18.4673C17.8034 34.6428 17.1667 34.9066 16.6973 35.376C16.2278 35.8455 15.9641 36.4822 15.9641 37.1461C15.9641 38.5286 17.0848 39.6494 18.4673 39.6494H21.5327C22.9152 39.6494 24.0359 38.5286 24.0359 37.1461ZM5.26258 30.6912C5.6807 30.7231 6.18656 30.7415 6.69469 30.7117C6.96539 32.0846 7.63789 33.3578 8.64172 34.3617C9.97437 35.6943 11.7818 36.443 13.6664 36.443H14.6216C14.5795 36.6735 14.5578 36.9087 14.5578 37.1461C14.5578 37.3862 14.5795 37.6213 14.6209 37.8492H13.6664C11.4088 37.8492 9.24367 36.9524 7.64734 35.3561C6.37383 34.0825 5.54547 32.447 5.26258 30.6912ZM4.54727 29.1949C3.43703 29.0077 2.40391 28.4799 1.59742 27.6733C0.574609 26.6505 0 25.2632 0 23.8167V20.4931C0 19.0466 0.574609 17.6593 1.59742 16.6365C2.62023 15.6137 4.0075 15.039 5.45398 15.039H5.81703C6.39734 7.71432 12.5256 1.95081 20 1.95081C27.4744 1.95081 33.6027 7.71432 34.183 15.039H34.546C35.9925 15.039 37.3798 15.6137 38.4026 16.6365C39.4254 17.6593 40 19.0466 40 20.4931V23.8167C40 25.2632 39.4254 26.6505 38.4026 27.6733C37.3798 28.6962 35.9925 29.2708 34.546 29.2708H32.9366C32.2691 29.2708 31.728 28.7296 31.728 28.0622V16.1788C31.728 9.70159 26.4772 4.45081 20 4.45081C13.5228 4.45081 8.27203 9.70159 8.27203 16.1788V28.0622C8.27203 28.5335 8.00227 28.9418 7.60867 29.1411C6.52523 29.5171 4.845 29.2451 4.54727 29.1949Z" fill="#1351D8"/>
</svg>
