<svg width="37" height="37" viewBox="0 0 37 37" fill="none" xmlns="http://www.w3.org/2000/svg">
<g clip-path="url(#clip0_6_163)">
<path d="M11.9745 1.55008C11.8095 1.55008 12.4095 1.55008 2.74953 1.55008C2.38203 1.55008 1.89453 1.10008 7.24953 5.11258L11.9745 1.55008Z" fill="white"/>
<path d="M13.25 9.05005C13.25 2.53255 13.2875 2.88505 13.16 2.55505C7.205 7.01755 7.6025 6.80005 7.25 6.80005C6.8975 6.80005 7.25 6.98005 1.34 2.55505C1.25 2.89255 1.25 2.57005 1.25 9.05005C1.25 9.44788 1.40804 9.82941 1.68934 10.1107C1.97064 10.392 2.35218 10.5501 2.75 10.5501H11.75C12.1478 10.5501 12.5294 10.392 12.8107 10.1107C13.092 9.82941 13.25 9.44788 13.25 9.05005Z" fill="white"/>
<path d="M29 7.09258L31.07 6.05008L29 5.01508V7.09258Z" fill="white"/>
<path d="M34.25 1.55005H25.25C24.8522 1.55005 24.4706 1.70808 24.1893 1.98939C23.908 2.27069 23.75 2.65222 23.75 3.05005V9.05005C23.75 9.44787 23.908 9.8294 24.1893 10.1107C24.4706 10.392 24.8522 10.55 25.25 10.55H34.25C34.6478 10.55 35.0294 10.392 35.3107 10.1107C35.592 9.8294 35.75 9.44787 35.75 9.05005V3.05005C35.75 2.65222 35.592 2.27069 35.3107 1.98939C35.0294 1.70808 34.6478 1.55005 34.25 1.55005ZM31.745 7.39255C29.495 8.50255 29.495 8.58505 29 8.58505C28.6022 8.58505 28.2206 8.42701 27.9393 8.14571C27.658 7.8644 27.5 7.48287 27.5 7.08505C27.5 5.25505 27.29 4.31005 28.25 3.74005C29.21 3.17005 29.8325 3.74005 31.7825 4.70755C32.0304 4.8354 32.2378 5.02985 32.3813 5.26906C32.5248 5.50826 32.5987 5.78274 32.5948 6.06166C32.5909 6.34057 32.5093 6.61288 32.3592 6.84798C32.2091 7.08308 31.9964 7.27167 31.745 7.39255Z" fill="white"/>
<path d="M29.75 31.55C30.5784 31.55 31.25 30.8785 31.25 30.05C31.25 29.2216 30.5784 28.55 29.75 28.55C28.9216 28.55 28.25 29.2216 28.25 30.05C28.25 30.8785 28.9216 31.55 29.75 31.55Z" fill="white"/>
<path d="M35.0525 28.55C34.914 28.5508 34.7785 28.5102 34.6631 28.4337C34.5477 28.3571 34.4578 28.2479 34.4047 28.12C34.3516 27.9921 34.3378 27.8513 34.365 27.7155C34.3922 27.5797 34.4592 27.4551 34.5575 27.3575C34.6871 27.2269 34.7598 27.0503 34.7598 26.8663C34.7598 26.6823 34.6871 26.5057 34.5575 26.375L33.425 25.2425C33.3613 25.1765 33.285 25.124 33.2006 25.0882C33.1162 25.0523 33.0255 25.0338 32.9338 25.0338C32.842 25.0338 32.7513 25.0523 32.6669 25.0882C32.5825 25.124 32.5062 25.1765 32.4425 25.2425C32.3449 25.3408 32.2203 25.4078 32.0846 25.4351C31.9488 25.4623 31.808 25.4484 31.6801 25.3954C31.5522 25.3423 31.443 25.2523 31.3664 25.1369C31.2898 25.0216 31.2493 24.886 31.25 24.7475C31.25 24.5626 31.1765 24.3851 31.0457 24.2543C30.9149 24.1235 30.7375 24.05 30.5525 24.05H28.9475C28.7625 24.05 28.5851 24.1235 28.4543 24.2543C28.3235 24.3851 28.25 24.5626 28.25 24.7475C28.2507 24.886 28.2102 25.0216 28.1336 25.1369C28.057 25.2523 27.9478 25.3423 27.8199 25.3954C27.692 25.4484 27.5512 25.4623 27.4154 25.4351C27.2797 25.4078 27.1551 25.3408 27.0575 25.2425C26.9938 25.1765 26.9175 25.124 26.8331 25.0882C26.7487 25.0523 26.658 25.0338 26.5663 25.0338C26.4745 25.0338 26.3838 25.0523 26.2994 25.0882C26.215 25.124 26.1387 25.1765 26.075 25.2425L24.9425 26.375C24.8774 26.4392 24.8257 26.5157 24.7905 26.6001C24.7552 26.6844 24.737 26.7749 24.737 26.8663C24.737 26.9577 24.7552 27.0482 24.7905 27.1325C24.8257 27.2169 24.8774 27.2934 24.9425 27.3575C25.0372 27.4564 25.1011 27.5808 25.1263 27.7154C25.1515 27.85 25.137 27.989 25.0845 28.1155C25.032 28.2419 24.9438 28.3504 24.8307 28.4276C24.7176 28.5047 24.5844 28.5473 24.4475 28.55C24.2625 28.55 24.0851 28.6235 23.9543 28.7543C23.8235 28.8851 23.75 29.0626 23.75 29.2475V30.8525C23.75 31.0375 23.8235 31.2149 23.9543 31.3458C24.0851 31.4766 24.2625 31.55 24.4475 31.55C24.586 31.5493 24.7215 31.5899 24.8369 31.6664C24.9523 31.743 25.0422 31.8522 25.0953 31.9801C25.1484 32.108 25.1622 32.2488 25.135 32.3846C25.1078 32.5204 25.0408 32.645 24.9425 32.7425C24.8765 32.8062 24.824 32.8825 24.7881 32.9669C24.7523 33.0513 24.7338 33.1421 24.7338 33.2338C24.7338 33.3255 24.7523 33.4163 24.7881 33.5007C24.824 33.5851 24.8765 33.6614 24.9425 33.7251L26.075 34.8575C26.1387 34.9236 26.215 34.9761 26.2994 35.0119C26.3838 35.0478 26.4745 35.0663 26.5663 35.0663C26.658 35.0663 26.7487 35.0478 26.8331 35.0119C26.9175 34.9761 26.9938 34.9236 27.0575 34.8575C27.1551 34.7593 27.2797 34.6923 27.4154 34.665C27.5512 34.6378 27.692 34.6517 27.8199 34.7047C27.9478 34.7578 28.057 34.8478 28.1336 34.9632C28.2102 35.0785 28.2507 35.2141 28.25 35.3525C28.25 35.5375 28.3235 35.7149 28.4543 35.8458C28.5851 35.9766 28.7625 36.05 28.9475 36.05H30.5525C30.7375 36.05 30.9149 35.9766 31.0457 35.8458C31.1765 35.7149 31.25 35.5375 31.25 35.3525C31.2493 35.2141 31.2898 35.0785 31.3664 34.9632C31.443 34.8478 31.5522 34.7578 31.6801 34.7047C31.808 34.6517 31.9488 34.6378 32.0846 34.665C32.2203 34.6923 32.3449 34.7593 32.4425 34.8575C32.5062 34.9236 32.5825 34.9761 32.6669 35.0119C32.7513 35.0478 32.842 35.0663 32.9338 35.0663C33.0255 35.0663 33.1162 35.0478 33.2006 35.0119C33.285 34.9761 33.3613 34.9236 33.425 34.8575L34.5575 33.7251C34.6235 33.6614 34.676 33.5851 34.7119 33.5007C34.7477 33.4163 34.7662 33.3255 34.7662 33.2338C34.7662 33.1421 34.7477 33.0513 34.7119 32.9669C34.676 32.8825 34.6235 32.8062 34.5575 32.7425C34.4592 32.645 34.3922 32.5204 34.365 32.3846C34.3378 32.2488 34.3516 32.108 34.4047 31.9801C34.4578 31.8522 34.5477 31.743 34.6631 31.6664C34.7785 31.5899 34.914 31.5493 35.0525 31.55C35.2375 31.55 35.4149 31.4766 35.5457 31.3458C35.6765 31.2149 35.75 31.0375 35.75 30.8525V29.2475C35.75 29.0626 35.6765 28.8851 35.5457 28.7543C35.4149 28.6235 35.2375 28.55 35.0525 28.55ZM29.75 33.05C29.1567 33.05 28.5766 32.8741 28.0833 32.5445C27.5899 32.2148 27.2054 31.7463 26.9784 31.1981C26.7513 30.6499 26.6919 30.0467 26.8076 29.4648C26.9234 28.8828 27.2091 28.3483 27.6287 27.9287C28.0482 27.5092 28.5828 27.2234 29.1647 27.1077C29.7467 26.9919 30.3499 27.0513 30.8981 27.2784C31.4462 27.5055 31.9148 27.89 32.2444 28.3833C32.5741 28.8767 32.75 29.4567 32.75 30.05C32.75 30.8457 32.4339 31.6088 31.8713 32.1714C31.3087 32.734 30.5457 33.05 29.75 33.05Z" fill="white"/>
<path d="M6.06497 24.4776L3.40997 27.1251C2.98862 27.547 2.75195 28.1188 2.75195 28.7151C2.75195 29.3114 2.98862 29.8832 3.40997 30.3051L5.53247 32.4276C5.95435 32.849 6.52622 33.0856 7.12247 33.0856C7.71873 33.0856 8.2906 32.849 8.71247 32.4276L11.3675 29.7801L6.06497 24.4776Z" fill="white"/>
<path d="M11.8925 31.3701L9.77753 33.4926L11.8925 35.6076C12.1808 35.8436 12.5465 35.9639 12.9186 35.9451C13.2907 35.9263 13.6425 35.7697 13.9054 35.5058C14.1684 35.2419 14.3237 34.8896 14.3412 34.5174C14.3587 34.1453 14.2371 33.78 14 33.4926L11.8925 31.3701Z" fill="white"/>
<path d="M6.93359 23.2251L12.6111 28.9026L21.9711 24.4701L11.3661 13.8651L6.93359 23.2251Z" fill="white"/>
<path d="M15.8906 16.2726L19.5656 19.9476C19.7022 19.4388 19.7023 18.903 19.566 18.3942C19.4298 17.8853 19.1619 17.4213 18.7894 17.0488C18.4169 16.6763 17.9529 16.4084 17.4441 16.2722C16.9352 16.1359 16.3994 16.1361 15.8906 16.2726Z" fill="white"/>
<path d="M20.9069 15.6801C21.3194 15.6801 21.3344 15.5601 23.0294 13.8651C23.1706 13.7249 23.2503 13.5343 23.251 13.3353C23.2517 13.1363 23.1734 12.9451 23.0331 12.8039C22.8929 12.6627 22.7023 12.5829 22.5033 12.5822C22.3043 12.5815 22.1131 12.6599 21.9719 12.8001L20.3819 14.3901C20.2739 14.4942 20.1997 14.6281 20.1686 14.7748C20.1376 14.9214 20.1512 15.074 20.2077 15.2129C20.2642 15.3517 20.361 15.4704 20.4856 15.5537C20.6103 15.637 20.757 15.681 20.9069 15.6801Z" fill="white"/>
<path d="M18.5 13.55V11.3C18.5 11.1011 18.421 10.9104 18.2803 10.7697C18.1397 10.6291 17.9489 10.55 17.75 10.55C17.5511 10.55 17.3603 10.6291 17.2197 10.7697C17.079 10.9104 17 11.1011 17 11.3V13.55C17 13.749 17.079 13.9397 17.2197 14.0804C17.3603 14.221 17.5511 14.3 17.75 14.3C17.9489 14.3 18.1397 14.221 18.2803 14.0804C18.421 13.9397 18.5 13.749 18.5 13.55Z" fill="white"/>
<path d="M24.5 17.3H22.25C22.0511 17.3 21.8603 17.3791 21.7197 17.5197C21.579 17.6604 21.5 17.8511 21.5 18.05C21.5 18.249 21.579 18.4397 21.7197 18.5804C21.8603 18.721 22.0511 18.8 22.25 18.8H24.5C24.6989 18.8 24.8897 18.721 25.0303 18.5804C25.171 18.4397 25.25 18.249 25.25 18.05C25.25 17.8511 25.171 17.6604 25.0303 17.5197C24.8897 17.3791 24.6989 17.3 24.5 17.3Z" fill="white"/>
</g>
<defs>
<clipPath id="clip0_6_163">
<rect width="36" height="36" fill="white" transform="translate(0.5 0.800049)"/>
</clipPath>
</defs>
</svg>
