<svg width="37" height="37" viewBox="0 0 37 37" fill="none" xmlns="http://www.w3.org/2000/svg">
<g clip-path="url(#clip0_6_131)">
<path d="M24.125 2.97974H12.875C10.7426 2.97974 9.00781 4.71456 9.00781 6.84692V30.7532C9.00781 32.8855 10.7426 34.6204 12.875 34.6204H24.125C26.2574 34.6204 27.9922 32.8855 27.9922 30.7532V6.84692C27.9922 4.71456 26.2574 2.97974 24.125 2.97974ZM19.9062 31.8079H17.0938C16.5113 31.8079 16.0391 31.3356 16.0391 30.7532C16.0391 30.1707 16.5113 29.6985 17.0938 29.6985H19.9062C20.4887 29.6985 20.9609 30.1707 20.9609 30.7532C20.9609 31.3356 20.4887 31.8079 19.9062 31.8079ZM19.9062 7.90161H17.0938C16.5113 7.90161 16.0391 7.42939 16.0391 6.84692C16.0391 6.26446 16.5113 5.79224 17.0938 5.79224H19.9062C20.4887 5.79224 20.9609 6.26446 20.9609 6.84692C20.9609 7.42939 20.4887 7.90161 19.9062 7.90161Z" fill="white"/>
<path d="M34.9695 11.9734C34.6942 11.4601 34.0549 11.2672 33.5416 11.5425C33.0283 11.8179 32.8353 12.4572 33.1106 12.9704V12.9705C33.936 14.5092 34.3906 16.5792 34.3906 18.7991C34.3906 21.0189 33.9357 23.0896 33.1097 24.6296V24.6297C32.8343 25.1429 33.0273 25.7822 33.5405 26.0576H33.5406C34.0539 26.3329 34.6932 26.14 34.9685 25.6267C35.9561 23.7855 36.5 21.3607 36.5 18.7991C36.5 16.2374 35.9565 13.8133 34.9695 11.9734Z" fill="white"/>
<path d="M29.9793 13.6783C29.4806 13.9792 29.3203 14.6275 29.6212 15.1262C30.203 16.0903 30.5234 17.3948 30.5234 18.7994C30.5234 20.204 30.2028 21.5089 29.6204 22.4739C29.3195 22.9726 29.4798 23.6208 29.9785 23.9218C30.4773 24.2228 31.1255 24.0624 31.4265 23.5637C32.2044 22.2745 32.6328 20.5825 32.6328 18.7994C32.6328 17.0163 32.2047 15.3247 31.4272 14.0364C31.1263 13.5376 30.478 13.3773 29.9793 13.6783Z" fill="white"/>
<path d="M3.89033 24.6297C3.0643 23.0896 2.60938 21.019 2.60938 18.7991C2.60938 16.5792 3.06395 14.5092 3.88934 12.9704C4.16469 12.4572 3.97175 11.8178 3.45847 11.5425C2.94519 11.2671 2.30584 11.4601 2.03049 11.9733C1.04352 13.8133 0.5 16.2374 0.5 18.7991C0.5 21.3607 1.04387 23.7855 2.03155 25.6267C2.30689 26.14 2.94617 26.3329 3.45945 26.0576C3.97273 25.7823 4.16567 25.1429 3.89033 24.6297Z" fill="white"/>
<path d="M6.47656 18.7994C6.47656 17.3948 6.79698 16.0904 7.37881 15.1262C7.67975 14.6275 7.51944 13.9793 7.02071 13.6783C6.52198 13.3773 5.8737 13.5376 5.57277 14.0364C4.79532 15.3247 4.36719 17.0162 4.36719 18.7994C4.36719 20.5826 4.7956 22.2745 5.57354 23.5637C5.87448 24.0624 6.52276 24.2227 7.02148 23.9218C7.52021 23.6209 7.68052 22.9726 7.37959 22.4739C6.79726 21.5089 6.47656 20.2039 6.47656 18.7994Z" fill="white"/>
</g>
<defs>
<clipPath id="clip0_6_131">
<rect width="36" height="36" fill="white" transform="translate(0.5 0.800049)"/>
</clipPath>
</defs>
</svg>
