<svg width="36" height="37" viewBox="0 0 36 37" fill="none" xmlns="http://www.w3.org/2000/svg">
<g clip-path="url(#clip0_6_88)">
<path d="M18.6654 30.4619C18.4417 30.4128 18.2181 30.3855 17.9945 30.3855C17.449 30.3855 16.9145 30.5382 16.4508 30.8273C15.7854 31.2419 15.3217 31.891 15.1472 32.6546C14.9672 33.4182 15.0981 34.2037 15.5126 34.8691C15.9272 35.5346 16.5763 35.9982 17.3399 36.1728C18.1036 36.3473 18.889 36.2219 19.5545 35.8073C20.2199 35.3928 20.6836 34.7437 20.8636 33.98C21.0436 33.2164 20.9126 32.431 20.4981 31.7655C20.0781 31.1055 19.429 30.6419 18.6654 30.4619Z" fill="white"/>
<path d="M6.33725 23.6164C6.11361 23.5673 5.88998 23.54 5.66634 23.54C5.12089 23.54 4.58634 23.6928 4.1227 23.9819C3.45725 24.3964 2.99361 25.0455 2.81907 25.8091C2.63907 26.5728 2.76998 27.3582 3.18452 28.0237C3.59907 28.6891 4.24816 29.1528 5.01179 29.3273C5.77543 29.5019 6.56088 29.3764 7.22634 28.9619C7.89179 28.5473 8.35543 27.8982 8.53543 27.1346C8.71543 26.3709 8.58452 25.5855 8.16998 24.92C7.74998 24.26 7.10088 23.7964 6.33725 23.6164Z" fill="white"/>
<path d="M5.00634 13.9837C5.76998 14.1583 6.55543 14.0328 7.22088 13.6183C7.88634 13.2037 8.34998 12.5546 8.52998 11.791C8.70998 11.0273 8.57907 10.2419 8.16452 9.57643C7.74998 8.91098 7.10088 8.44734 6.33725 8.26734C6.11361 8.21825 5.88998 8.19098 5.66634 8.19098C5.12089 8.19098 4.58634 8.34371 4.1227 8.6328C3.45725 9.04734 2.99361 9.69643 2.81907 10.4601C2.63907 11.2237 2.76998 12.0092 3.18452 12.6746C3.59361 13.3401 4.2427 13.8037 5.00634 13.9837Z" fill="white"/>
<path d="M17.3345 7.13825C18.0981 7.31279 18.8836 7.18734 19.549 6.77279C20.2145 6.35825 20.6781 5.70916 20.8581 4.94552C21.0381 4.18188 20.9072 3.39643 20.4926 2.73097C20.0781 2.06552 19.429 1.60188 18.6654 1.42188C18.4417 1.37279 18.2181 1.34552 17.9945 1.34552C17.449 1.34552 16.9145 1.49825 16.4508 1.78734C15.7854 2.20188 15.3217 2.85097 15.1472 3.61461C14.9672 4.37825 15.0981 5.1637 15.5126 5.82916C15.9217 6.49461 16.5708 6.95825 17.3345 7.13825Z" fill="white"/>
<path d="M29.6606 13.9837C30.4243 14.1583 31.2097 14.0328 31.8752 13.6183C32.5406 13.2037 33.0043 12.5546 33.1843 11.791C33.3643 11.0273 33.2334 10.2419 32.8188 9.57643C32.4043 8.91098 31.7552 8.44734 30.9915 8.26734C30.7679 8.21825 30.5443 8.19098 30.3206 8.19098C29.7752 8.19098 29.2406 8.34371 28.777 8.6328C28.1115 9.04734 27.6479 9.69643 27.4734 10.4601C27.2934 11.2237 27.4243 12.0092 27.8388 12.6746C28.2479 13.3401 28.897 13.8037 29.6606 13.9837Z" fill="white"/>
<path d="M30.9915 23.6165C30.7679 23.5674 30.5443 23.5401 30.3206 23.5401C29.7752 23.5401 29.2406 23.6928 28.777 23.9819C28.1115 24.3965 27.6479 25.0456 27.4734 25.8092C27.2934 26.5728 27.4243 27.3583 27.8388 28.0237C28.2534 28.6892 28.9025 29.1528 29.6661 29.3274C30.4297 29.5019 31.2152 29.3765 31.8806 28.9619C32.5461 28.5474 33.0097 27.8983 33.1897 27.1346C33.3697 26.371 33.2388 25.5856 32.8243 24.9201C32.4043 24.2601 31.7552 23.7965 30.9915 23.6165Z" fill="white"/>
<path d="M20.3977 17.7146C20.3977 16.3892 19.3231 15.3146 17.9977 15.3146C16.6722 15.3146 15.5977 16.3892 15.5977 17.7146C15.5977 19.0401 16.6722 20.1146 17.9977 20.1146C19.3231 20.1146 20.3977 19.0401 20.3977 17.7146Z" fill="white"/>
<path d="M17.9991 20.611C16.0136 20.611 14.2954 21.7782 13.51 23.4637C14.65 24.6473 16.2373 25.3782 17.9991 25.3782C19.7609 25.3782 21.3536 24.6473 22.4882 23.4637C21.7027 21.7782 19.9845 20.611 17.9991 20.611Z" fill="white"/>
<path d="M27.0323 8.80729L21.7414 5.75275C21.5996 6.12366 21.4033 6.47275 21.1523 6.7782L26.5033 9.87093C26.6287 9.48911 26.8033 9.13457 27.0323 8.80729Z" fill="white"/>
<path d="M9.50089 9.87097L14.8463 6.78369C14.7536 6.66369 14.6609 6.53824 14.5791 6.40733C14.4482 6.20006 14.3391 5.98188 14.2573 5.75824L8.96089 8.81279C9.00998 8.87279 9.05362 8.93279 9.0918 8.99824C9.26635 9.27642 9.40271 9.56551 9.50089 9.87097Z" fill="white"/>
<path d="M8.9668 28.7873L14.2632 31.8419C14.3995 31.471 14.5959 31.1273 14.8523 30.8164L9.50134 27.7237C9.37589 28.1055 9.20134 28.4655 8.9668 28.7873Z" fill="white"/>
<path d="M29.9824 22.46C30.0915 22.4491 30.2061 22.4437 30.3206 22.4437C30.6042 22.4437 30.8879 22.4764 31.1661 22.5364V15.0637C30.8933 15.1237 30.6151 15.1509 30.3315 15.1509C30.217 15.1509 30.097 15.1455 29.9824 15.1346V22.46Z" fill="white"/>
<path d="M4.83594 22.531C5.10866 22.471 5.38685 22.4437 5.66503 22.4437C5.78503 22.4437 5.89957 22.4492 6.01957 22.4601V15.1347C5.91048 15.1456 5.79594 15.151 5.68139 15.151C5.39776 15.151 5.11412 15.1183 4.83594 15.0583V22.531Z" fill="white"/>
<path d="M18.5936 8.26186C18.4027 8.28914 18.2063 8.3055 18.01 8.3055C17.8082 8.3055 17.6063 8.28914 17.41 8.25641V11.1582C17.6009 11.1364 17.8027 11.131 17.9991 11.131C18.2009 11.131 18.3972 11.1364 18.5936 11.1582V8.26186Z" fill="white"/>
<path d="M27.6918 14.1692C27.3918 13.9074 27.1245 13.6019 26.9063 13.2528L24.4627 14.6764C24.6809 15.0092 24.8663 15.3583 25.0245 15.7237L27.6918 14.1692Z" fill="white"/>
<path d="M10.9791 15.7291C11.1373 15.3582 11.3282 15.0091 11.5409 14.6764L9.0918 13.2473C8.88452 13.591 8.61725 13.9019 8.30089 14.1637L10.9791 15.7291Z" fill="white"/>
<path d="M24.1309 23.4037L26.6345 24.871C26.7927 24.5001 27.0054 24.1619 27.2618 23.8619L24.769 22.4055C24.5836 22.7546 24.3709 23.0873 24.1309 23.4037Z" fill="white"/>
<path d="M17.41 26.4419V29.3328C17.6009 29.3055 17.7972 29.2892 17.9936 29.2892C18.1954 29.2892 18.3972 29.3055 18.5936 29.3383V26.4419C18.3972 26.4637 18.2009 26.4692 17.9991 26.4692C17.8027 26.4692 17.6009 26.4637 17.41 26.4419Z" fill="white"/>
<path d="M9.36906 24.871L11.8727 23.4037C11.6381 23.0873 11.4254 22.7546 11.2345 22.4055L8.73633 23.8673C8.86724 24.0146 8.98724 24.1782 9.09087 24.3473C9.19451 24.5164 9.28724 24.691 9.36906 24.871Z" fill="white"/>
<path d="M24.5763 18.8C24.5763 15.1673 21.6308 12.2219 17.9981 12.2219C14.3654 12.2219 11.4199 15.1673 11.4199 18.8C11.4199 20.251 11.8945 21.5873 12.6908 22.6728C13.3181 21.5273 14.2945 20.6273 15.4508 20.0873C14.8672 19.4655 14.5126 18.631 14.5126 17.7146C14.5126 15.7891 16.0781 14.2237 18.0036 14.2237C19.929 14.2237 21.4945 15.7891 21.4945 17.7146C21.4945 18.631 21.1345 19.4655 20.5563 20.0873C21.7126 20.6273 22.689 21.5273 23.3163 22.6728C24.1017 21.5873 24.5763 20.251 24.5763 18.8Z" fill="white"/>
<path d="M26.5027 27.7291L21.1463 30.8219C21.2391 30.9419 21.3318 31.0673 21.4136 31.1982C21.5445 31.4055 21.6482 31.6237 21.7409 31.8473L27.0373 28.7928C26.9936 28.7328 26.95 28.6728 26.9118 28.6073C26.7318 28.3237 26.6009 28.0291 26.5027 27.7291Z" fill="white"/>
</g>
<defs>
<clipPath id="clip0_6_88">
<rect width="36" height="36" fill="white" transform="translate(0 0.800049)"/>
</clipPath>
</defs>
</svg>
