<svg width="37" height="37" viewBox="0 0 37 37" fill="none" xmlns="http://www.w3.org/2000/svg">
<path fill-rule="evenodd" clip-rule="evenodd" d="M16.0113 16.539L17.2468 19.5106C17.3752 19.8194 17.2435 20.1725 16.9463 20.3254L16.0186 20.8027C15.853 20.8879 15.6782 20.8987 15.5032 20.8345C15.3284 20.7703 15.2028 20.6486 15.1309 20.4767L13.7393 17.1478L16.0113 16.539ZM23.7869 25.4763L34.5944 34.8427C34.6438 34.6994 34.672 34.5462 34.672 34.3863V16.613C34.672 16.4538 34.6445 16.3018 34.5961 16.1599L23.7869 25.4763ZM18.5421 28.1399L33.5201 15.2306C33.4372 15.2157 33.353 15.2064 33.2657 15.2064H29.5298C29.5718 16.5294 28.6972 17.7697 27.3688 18.1256C26.1602 18.4495 24.9016 17.9578 24.214 16.9677C22.143 16.1708 19.6473 15.9619 17.3587 16.1168L18.5453 18.9708C18.9535 19.9527 18.5344 21.0898 17.5895 21.5759L16.6619 22.0532C16.1472 22.318 15.5618 22.3541 15.0185 22.1546C14.4762 21.9555 14.0562 21.5519 13.8335 21.0192L12.3492 17.4685C10.5197 17.6779 8.73045 16.765 7.80619 15.2064H3.73439C3.73172 15.2064 3.7294 15.2064 3.72673 15.2064L18.5421 28.1399ZM18.9985 29.6039L22.7103 26.4046L33.5161 35.7687C33.4352 35.7836 33.3513 35.7926 33.2657 35.7926H3.73432C3.73299 35.7926 3.73235 35.7926 3.73102 35.7926L14.4211 26.4086L18.0774 29.6003C18.2098 29.7164 18.3743 29.7738 18.5395 29.7738C18.7034 29.7737 18.8662 29.717 18.9985 29.6039ZM13.3525 25.4763L2.47995 35.0191C2.38376 34.8287 2.328 34.6141 2.328 34.3863V16.613C2.328 16.3864 2.38306 16.1735 2.47861 15.9835L13.3525 25.4763ZM30.1687 11.9288L32.3786 12.5209C32.732 12.6156 33.0955 12.4035 33.1893 12.0503C33.2833 11.6967 33.0716 11.3338 32.7185 11.2392L30.5086 10.6471C30.1552 10.5524 29.7917 10.7644 29.6979 11.1176C29.6038 11.4713 29.8156 11.8342 30.1687 11.9288ZM29.1046 5.40727L30.7224 3.78952C30.9808 3.53105 30.9827 3.111 30.7245 2.85169C30.4666 2.59273 30.0459 2.59076 29.7871 2.84958L28.1693 4.46733C27.9109 4.7258 27.909 5.14585 28.1672 5.40516C28.4251 5.66412 28.8458 5.66609 29.1046 5.40727ZM31.0471 8.38486L33.1421 7.82349C33.4977 7.72821 33.7088 7.36273 33.6135 7.00709C33.5182 6.65145 33.1527 6.44044 32.7971 6.53571L30.7021 7.09709C30.3464 7.19236 30.1354 7.55785 30.2307 7.91349C30.326 8.26913 30.6915 8.48014 31.0471 8.38486ZM26.9276 10.6348C27.0066 10.6247 27.0859 10.6092 27.1651 10.588C28.1199 10.3321 28.6865 9.35067 28.4307 8.39583C28.1748 7.44099 27.1934 6.87441 26.2385 7.13021C26.1594 7.15144 26.0829 7.17767 26.0095 7.20839L24.8627 2.9284C24.6474 2.12487 23.8137 1.64358 23.0102 1.85888C22.2617 2.05941 21.7827 2.80324 21.9096 3.56747L21.9095 3.56754C20.5067 5.47357 18.1262 7.34607 15.1991 8.70211L16.8188 14.7469C20.0331 14.4609 23.0357 14.9049 25.2037 15.8542H25.2038C25.4791 16.5623 26.2551 16.968 27.0049 16.7671C27.8052 16.5526 28.2889 15.7149 28.0744 14.9146L26.9276 10.6348ZM15.4904 15.2228L12.6531 15.983C10.9291 16.4449 9.14065 15.4123 8.6787 13.6884C8.21674 11.9645 9.24935 10.1759 10.9733 9.71391L13.8106 8.95369C14.3705 11.0434 14.9303 13.1331 15.4904 15.2228Z" fill="white"/>
</svg>
