<svg width="37" height="37" viewBox="0 0 37 37" fill="none" xmlns="http://www.w3.org/2000/svg">
<g clip-path="url(#clip0_6_145)">
<path fill-rule="evenodd" clip-rule="evenodd" d="M9.28132 17.0513C11.8773 17.0513 13.9816 19.1299 13.9816 21.6939C13.9816 24.2579 11.8772 26.3366 9.28132 26.3366C6.68538 26.3366 4.58107 24.258 4.58107 21.6939C4.58107 19.1299 6.68545 17.0513 9.28132 17.0513ZM33.1657 22.1336C32.8847 22.2087 32.596 22.0417 32.5209 21.7607C32.4458 21.4797 32.6128 21.191 32.8938 21.1159L34.8608 20.5889C35.1418 20.5138 35.4305 20.6807 35.5056 20.9617C35.5807 21.2427 35.4137 21.5314 35.1327 21.6065L33.1657 22.1336ZM31.0411 19.0885C30.966 19.3695 30.6773 19.5365 30.3963 19.4614C30.1153 19.3863 29.9483 19.0977 30.0234 18.8166L30.5136 16.9874C30.5887 16.7064 30.8773 16.5394 31.1583 16.6145C31.4393 16.6896 31.6062 16.9783 31.5312 17.2593L31.0411 19.0885ZM32.5019 20.3639L33.915 18.9509C34.1208 18.745 34.1208 18.4111 33.915 18.2052C33.7091 17.9993 33.3752 17.9993 33.1692 18.2052L31.7562 19.6183C31.5503 19.8242 31.5503 20.1581 31.7562 20.3639C31.9621 20.5698 32.2959 20.5699 32.5019 20.3639ZM31.8301 25.5605C31.6242 25.3546 31.6242 25.0207 31.8301 24.8148C32.036 24.6089 32.3699 24.6089 32.5758 24.8148L33.9149 26.1539C34.1208 26.3598 34.1208 26.6937 33.9149 26.8996C33.709 27.1054 33.3751 27.1054 33.1691 26.8996L31.8301 25.5605ZM32.9306 23.9987C32.6496 23.9237 32.4826 23.635 32.5577 23.354C32.6328 23.073 32.9215 22.906 33.2025 22.9811L35.1327 23.4983C35.4137 23.5734 35.5807 23.8621 35.5056 24.1431C35.4305 24.4241 35.1418 24.5911 34.8608 24.516L32.9306 23.9987ZM30.3869 28.6752C30.8084 28.5622 31.0609 28.125 30.9479 27.7034L28.1875 17.4015C28.0746 16.9799 27.6373 16.7275 27.2158 16.8404C26.7943 16.9534 26.5418 17.3906 26.6548 17.8122L29.4152 28.1141C29.5281 28.5357 29.9654 28.7881 30.3869 28.6752ZM21.035 21.6546L18.8229 22.2473C18.3008 22.3873 17.989 22.9273 18.129 23.4494L19.213 27.4951C19.3529 28.0172 19.8929 28.329 20.415 28.1892L22.6271 27.5964L21.035 21.6546ZM23.6876 27.4847L22.0092 21.2211L25.8237 18.7858L28.2086 27.6865L23.6876 27.4847ZM31.0087 23.8552L30.1641 20.7033C30.8922 21.0394 31.3976 21.776 31.3976 22.6306C31.3976 23.0868 31.2536 23.5093 31.0087 23.8552ZM18.0468 27.2179C17.4314 27.0954 16.9051 26.6357 16.7325 25.9916C16.56 25.3475 16.786 24.6863 17.2576 24.2725L18.0468 27.2179ZM21.1672 29.0794L22.8873 32.0587C23.0176 32.2844 23.308 32.3623 23.5337 32.232L24.3858 31.74C24.6115 31.6097 24.6893 31.3193 24.559 31.0936L23.0974 28.5621L21.1672 29.0794ZM30.6952 1.57349H17.5387C17.0583 1.57349 16.6653 1.96667 16.6653 2.44691V10.7654C16.6653 11.2457 17.0584 11.6389 17.5387 11.6389H25.4604L27.2653 13.0275L29.212 14.5253V11.6389H30.6951C31.1754 11.6389 31.5685 11.2457 31.5685 10.7654V2.44691C31.5686 1.9666 31.1756 1.57349 30.6952 1.57349ZM19.525 4.43942C19.2338 4.43942 18.9977 4.20331 18.9977 3.91208C18.9977 3.62085 19.2338 3.38474 19.525 3.38474H28.7089C29.0002 3.38474 29.2363 3.62085 29.2363 3.91208C29.2363 4.20331 29.0002 4.43942 28.7089 4.43942H19.525ZM19.525 9.82768C19.2338 9.82768 18.9977 9.59157 18.9977 9.30034C18.9977 9.0091 19.2338 8.77299 19.525 8.77299H28.7089C29.0002 8.77299 29.2363 9.0091 29.2363 9.30034C29.2363 9.59157 29.0002 9.82768 28.7089 9.82768H19.525ZM19.525 7.13352C19.2338 7.13352 18.9977 6.89741 18.9977 6.60617C18.9977 6.31494 19.2338 6.07883 19.525 6.07883H28.7089C29.0002 6.07883 29.2363 6.31494 29.2363 6.60617C29.2363 6.89741 29.0002 7.13352 28.7089 7.13352H19.525ZM13.7715 5.05353C13.2911 5.05353 12.8981 5.44665 12.8981 5.92703V14.2455C12.8981 14.7258 13.2912 15.1189 13.7715 15.1189H15.2546V18.0053L17.2014 16.5075L19.0062 15.1189H26.9281C27.2502 15.1189 27.5331 14.942 27.6845 14.6806L25.1017 12.6935H17.5387C16.4763 12.6935 15.6106 11.8278 15.6106 10.7654V5.05353H13.7715ZM1.47642 36.0266H17.0861V32.2864C17.0861 29.5014 15.3484 27.1028 12.9037 26.1206C11.9146 26.915 10.6542 27.3912 9.28125 27.3912C7.90833 27.3912 6.6479 26.915 5.65875 26.1206C3.21412 27.1028 1.47635 29.5014 1.47635 32.2864V36.0266H1.47642Z" fill="white"/>
</g>
<defs>
<clipPath id="clip0_6_145">
<rect width="36" height="36" fill="white" transform="translate(0.5 0.800049)"/>
</clipPath>
</defs>
</svg>
