<svg width="36" height="37" viewBox="0 0 36 37" fill="none" xmlns="http://www.w3.org/2000/svg">
<path d="M19.125 30.0501L18 34.5501L22.5 33.4251L27.8888 28.0363L24.5138 24.6613L19.125 30.0501Z" fill="white"/>
<path d="M29.115 21.05C28.8017 21.0498 28.4914 21.1112 28.2019 21.2309C27.9123 21.3506 27.6492 21.5261 27.4275 21.7476L26.1112 23.0638L29.4862 26.4388L30.8025 25.1226C31.1365 24.789 31.364 24.3638 31.4562 23.9009C31.5484 23.438 31.5011 22.9581 31.3204 22.5221C31.1397 22.086 30.8337 21.7134 30.4411 21.4513C30.0485 21.1893 29.587 21.0496 29.115 21.05Z" fill="white"/>
<path d="M21.375 9.80005H27L20.25 3.05005V8.67505C20.25 8.97342 20.3685 9.25957 20.5795 9.47054C20.7905 9.68152 21.0766 9.80005 21.375 9.80005Z" fill="white"/>
<path d="M25.875 20.1613C26.2086 19.8318 26.5874 19.5515 27 19.3288V12.05H21.375C20.4799 12.05 19.6214 11.6945 18.9885 11.0615C18.3556 10.4286 18 9.57015 18 8.67505V3.05005H6.75C6.15326 3.05005 5.58097 3.2871 5.15901 3.70906C4.73705 4.13102 4.5 4.70331 4.5 5.30005V32.3C4.5 32.8968 4.73705 33.4691 5.15901 33.891C5.58097 34.313 6.15326 34.55 6.75 34.55H15.6825L17.0887 28.925L25.875 20.1613ZM10.125 10.925H14.625C14.9234 10.925 15.2095 11.0436 15.4205 11.2546C15.6315 11.4655 15.75 11.7517 15.75 12.05C15.75 12.3484 15.6315 12.6346 15.4205 12.8455C15.2095 13.0565 14.9234 13.175 14.625 13.175H10.125C9.82663 13.175 9.54048 13.0565 9.3295 12.8455C9.11853 12.6346 9 12.3484 9 12.05C9 11.7517 9.11853 11.4655 9.3295 11.2546C9.54048 11.0436 9.82663 10.925 10.125 10.925ZM15.75 26.675H10.125C9.82663 26.675 9.54048 26.5565 9.3295 26.3455C9.11853 26.1346 9 25.8484 9 25.55C9 25.2517 9.11853 24.9655 9.3295 24.7546C9.54048 24.5436 9.82663 24.425 10.125 24.425H15.75C16.0484 24.425 16.3345 24.5436 16.5455 24.7546C16.7565 24.9655 16.875 25.2517 16.875 25.55C16.875 25.8484 16.7565 26.1346 16.5455 26.3455C16.3345 26.5565 16.0484 26.675 15.75 26.675ZM20.25 22.175H10.125C9.82663 22.175 9.54048 22.0565 9.3295 21.8455C9.11853 21.6346 9 21.3484 9 21.05C9 20.7517 9.11853 20.4655 9.3295 20.2546C9.54048 20.0436 9.82663 19.925 10.125 19.925H20.25C20.5484 19.925 20.8345 20.0436 21.0455 20.2546C21.2565 20.4655 21.375 20.7517 21.375 21.05C21.375 21.3484 21.2565 21.6346 21.0455 21.8455C20.8345 22.0565 20.5484 22.175 20.25 22.175ZM21.375 17.675H10.125C9.82663 17.675 9.54048 17.5565 9.3295 17.3455C9.11853 17.1346 9 16.8484 9 16.55C9 16.2517 9.11853 15.9655 9.3295 15.7546C9.54048 15.5436 9.82663 15.425 10.125 15.425H21.375C21.6734 15.425 21.9595 15.5436 22.1705 15.7546C22.3815 15.9655 22.5 16.2517 22.5 16.55C22.5 16.8484 22.3815 17.1346 22.1705 17.3455C21.9595 17.5565 21.6734 17.675 21.375 17.675Z" fill="white"/>
</svg>
